<?xml version='1.0' encoding='utf-8'?>
<svg xmlns="http://www.w3.org/2000/svg" id="svg12" preserveAspectRatio="xMidYMid meet" viewBox="0 0 6000.000000 4000.000000" height="4000.000000pt" width="6000.000000pt" version="1.0"> <metadata id="metadata18"> </metadata> <defs id="defs16"/> <g style="fill:#42977d;fill-opacity:0.81993568" id="g10" stroke="none" fill="#000000" transform="translate(0.000000,4000.000000) scale(0.100000,-0.100000)"> <path style="fill-opacity:0.81993568;fill:#42977d" id="path2" d="M40685 33104 c-364 -49 -684 -187 -970 -417 -185 -149 -422 -426 -560 -653 -149 -248 -289 -560 -409 -914 -48 -142 -162 -593 -181 -715 -3 -22 -13 -79 -22 -126 l-17 -86 -105 -26 c-58 -15 -151 -38 -206 -52 -380 -96 -1290 -276 -1404 -277 -72 0 -394 137 -484 206 -46 35 -50 36 -73 22 -13 -9 -28 -16 -33 -16 -11 0 -145 64 -186 89 -59 37 -313 167 -520 267 -77 37 -169 82 -206 100 -36 18 -87 42 -115 52 -27 11 -93 41 -146 66 -54 25 -101 46 -106 46 -8 0 -110 47 -154 71 -10 5 -24 9 -31 9 -7 0 -35 11 -63 25 -46 23 -144 61 -279 109 -33 12 -66 25 -74 30 -7 5 -38 17 -70 27 -53 17 -150 52 -236 85 -22 9 -52 18 -68 21 -15 3 -30 9 -33 14 -3 5 -13 9 -22 9 -9 1 -35 9 -57 20 -22 11 -50 19 -63 20 -13 0 -44 9 -70 19 -26 11 -114 41 -197 66 -82 26 -174 55 -203 66 -30 10 -64 19 -75 19 -12 0 -34 6 -48 14 -26 13 -68 26 -104 33 -11 1 -49 11 -85 22 -61 17 -106 29 -205 53 -22 6 -74 18 -115 29 -249 61 -470 108 -645 140 -33 5 -103 19 -155 29 -52 10 -121 21 -153 24 -32 3 -75 10 -95 15 -46 13 -215 35 -532 71 -170 19 -302 30 -460 40 -85 5 -230 14 -321 20 -189 13 -931 8 -1154 -8 -77 -6 -171 -11 -210 -13 -38 -1 -95 -5 -125 -10 -30 -5 -140 -18 -245 -29 -104 -11 -206 -24 -225 -30 -19 -5 -53 -10 -76 -10 -23 0 -75 -7 -115 -15 -73 -15 -112 -23 -239 -45 -103 -18 -162 -30 -205 -39 -22 -5 -67 -15 -100 -21 -98 -19 -276 -60 -330 -75 -65 -18 -209 -54 -260 -64 -57 -11 -237 -62 -255 -71 -8 -4 -32 -11 -52 -14 -20 -3 -52 -12 -70 -20 -18 -7 -87 -30 -153 -51 -66 -21 -151 -49 -190 -62 -38 -14 -91 -31 -116 -38 -26 -7 -60 -20 -77 -29 -17 -9 -38 -16 -46 -16 -8 0 -27 -6 -43 -14 -15 -8 -53 -22 -83 -31 -30 -9 -68 -23 -85 -30 -16 -6 -59 -22 -95 -35 -36 -12 -84 -31 -107 -41 -24 -11 -47 -19 -53 -19 -5 0 -25 -9 -45 -20 -20 -11 -42 -20 -50 -20 -8 0 -31 -9 -52 -19 -21 -11 -72 -34 -113 -51 -41 -18 -103 -45 -138 -61 -35 -16 -66 -29 -68 -29 -3 0 -29 -11 -57 -24 -29 -13 -86 -38 -127 -56 -41 -17 -93 -40 -115 -50 -22 -11 -87 -42 -145 -69 -185 -87 -234 -110 -260 -125 -14 -7 -81 -42 -150 -76 -196 -98 -402 -204 -440 -228 -19 -12 -41 -24 -47 -27 -7 -3 -19 -7 -25 -10 -7 -3 -35 -18 -63 -35 -27 -16 -61 -34 -75 -40 -14 -5 -32 -14 -40 -20 -8 -5 -31 -17 -50 -26 -19 -10 -42 -23 -50 -30 -8 -6 -55 -33 -104 -59 -49 -25 -108 -59 -132 -76 -23 -16 -55 -34 -70 -39 -15 -6 -66 -34 -113 -63 -47 -29 -117 -70 -156 -91 -38 -21 -97 -55 -130 -76 -33 -20 -98 -58 -145 -85 -47 -26 -114 -66 -150 -89 -36 -22 -74 -46 -85 -53 -29 -17 -128 -79 -220 -137 -44 -28 -89 -56 -100 -63 -11 -6 -58 -36 -105 -65 -46 -29 -89 -55 -95 -57 -5 -2 -23 -15 -39 -28 -17 -14 -39 -29 -50 -34 -12 -5 -33 -17 -47 -27 -15 -9 -55 -35 -90 -57 -56 -34 -92 -57 -149 -95 -133 -88 -251 -165 -275 -179 -40 -22 -89 -54 -95 -62 -6 -8 -85 -58 -128 -82 -18 -10 -64 -40 -102 -67 -37 -28 -71 -50 -75 -50 -4 0 -25 -13 -48 -29 -43 -29 -289 -188 -319 -206 -9 -6 -50 -32 -90 -60 -40 -27 -89 -58 -108 -69 -19 -10 -49 -29 -67 -42 -17 -13 -34 -24 -37 -24 -3 0 -38 -22 -78 -48 -153 -102 -277 -182 -284 -182 -3 0 -23 -13 -44 -30 -21 -16 -41 -30 -45 -30 -5 0 -23 -11 -41 -25 -18 -14 -35 -25 -38 -25 -10 0 -287 -180 -296 -192 -3 -4 -21 -14 -40 -23 -40 -17 -68 -34 -87 -52 -7 -6 -40 -27 -73 -45 -33 -18 -60 -36 -60 -40 0 -5 -4 -8 -9 -8 -12 0 -115 -63 -119 -72 -2 -5 -7 -8 -12 -8 -4 0 -68 -37 -142 -82 -73 -45 -159 -96 -191 -115 -33 -18 -72 -42 -87 -53 -15 -11 -31 -20 -34 -20 -3 0 -44 -22 -92 -50 -48 -27 -88 -50 -89 -50 -1 0 -78 -44 -171 -98 -93 -54 -178 -103 -189 -109 -11 -5 -33 -18 -50 -27 -16 -9 -61 -33 -100 -53 -38 -19 -72 -39 -75 -42 -3 -4 -21 -13 -40 -21 -19 -8 -53 -24 -75 -37 -78 -43 -526 -263 -740 -363 -33 -15 -98 -45 -145 -67 -47 -22 -96 -44 -109 -48 -14 -4 -38 -16 -55 -26 -17 -11 -37 -19 -43 -19 -7 0 -41 -14 -75 -31 -35 -17 -94 -42 -132 -55 -38 -13 -74 -28 -80 -33 -6 -4 -29 -14 -51 -21 -22 -7 -68 -25 -103 -41 -35 -16 -71 -29 -80 -29 -9 0 -31 -8 -48 -19 -17 -10 -41 -22 -55 -25 -13 -4 -69 -24 -124 -45 -55 -21 -116 -44 -135 -50 -225 -80 -356 -126 -410 -142 -36 -12 -78 -27 -95 -34 -16 -8 -52 -20 -80 -26 -27 -7 -68 -20 -90 -29 -43 -19 -139 -49 -270 -85 -44 -12 -91 -27 -105 -32 -14 -6 -52 -16 -85 -23 -33 -7 -64 -15 -70 -20 -11 -7 -76 -25 -135 -36 -19 -3 -48 -12 -65 -19 -16 -7 -79 -24 -140 -38 -60 -14 -135 -32 -165 -41 -30 -9 -77 -18 -104 -21 -27 -3 -74 -15 -105 -25 -30 -11 -65 -20 -77 -20 -12 0 -69 -11 -126 -24 -123 -30 -235 -52 -303 -61 -27 -4 -54 -10 -60 -15 -10 -7 -94 -23 -190 -36 -27 -3 -57 -10 -66 -15 -9 -5 -59 -13 -110 -19 -51 -6 -97 -15 -103 -19 -6 -5 -38 -12 -71 -16 -119 -13 -210 -27 -220 -35 -5 -4 -66 -13 -134 -19 -69 -6 -130 -16 -136 -21 -6 -5 -69 -14 -141 -20 -71 -5 -156 -15 -189 -20 -110 -19 -692 -78 -1030 -104 -226 -18 -632 -42 -950 -56 -126 -6 -318 -15 -425 -21 -284 -14 -2382 -14 -2728 1 -156 6 -289 9 -297 6 -7 -2 -96 -1 -197 4 -203 11 -923 32 -1033 31 -38 0 -214 6 -390 14 -176 8 -522 17 -770 20 -449 5 -765 11 -1095 20 -96 3 -434 10 -750 15 -316 6 -768 15 -1005 20 -236 5 -589 13 -782 16 l-353 7 0 -646 0 -647 43 0 c53 0 1009 -26 1462 -40 1258 -38 1653 -50 1900 -55 154 -4 303 -11 330 -16 54 -10 1085 -59 1225 -58 47 0 312 -9 590 -20 1016 -42 1392 -52 2250 -63 964 -13 2073 -1 2560 26 561 32 630 37 653 45 12 5 79 11 147 15 130 6 493 39 615 56 39 6 113 15 165 20 82 9 318 39 430 54 19 3 69 11 110 19 41 8 104 18 140 22 36 3 153 22 260 41 107 20 224 40 259 45 36 5 83 16 105 23 23 8 66 17 96 20 84 10 120 17 120 26 0 4 26 11 58 15 65 8 186 35 447 102 99 25 207 52 240 59 33 8 89 23 125 34 36 10 103 28 150 40 47 11 121 32 165 45 44 13 143 42 220 65 77 23 149 45 160 50 32 13 174 59 240 77 33 9 67 22 76 29 8 8 23 14 32 14 16 0 172 54 304 106 34 13 68 24 75 24 7 0 22 6 33 14 11 7 46 21 77 30 31 9 60 21 63 26 3 6 14 10 23 10 9 0 28 6 42 13 14 7 63 28 110 47 47 18 90 36 95 40 6 4 28 13 50 20 22 7 67 25 100 40 33 15 101 44 150 64 50 20 108 45 130 55 22 10 83 37 135 61 241 109 644 307 726 356 31 19 60 34 65 34 5 0 27 11 49 25 22 14 65 38 97 53 32 16 83 43 113 59 157 86 317 176 368 206 31 19 117 69 190 113 72 43 152 90 176 104 24 14 53 33 63 43 11 9 23 17 27 17 4 0 37 19 74 43 37 24 88 57 115 73 26 16 87 55 137 87 49 31 93 57 97 57 3 0 16 9 27 19 12 11 32 26 46 33 14 8 58 36 99 63 40 28 88 59 107 70 18 12 41 28 52 38 10 9 22 17 26 17 4 0 41 24 82 53 42 28 90 60 107 70 18 10 48 31 67 46 19 15 58 40 85 56 28 15 52 31 55 35 5 6 134 94 168 115 10 5 31 20 49 32 17 13 36 23 41 23 6 0 12 3 14 8 2 4 55 42 118 85 206 139 244 166 290 199 25 18 54 38 65 44 11 6 54 35 95 63 41 29 113 77 160 108 47 31 103 71 126 90 23 18 46 33 52 33 6 0 17 8 24 18 7 9 29 25 48 36 19 10 60 37 90 60 58 43 247 172 354 241 34 22 82 55 107 73 24 18 82 58 129 89 47 31 128 86 180 121 186 128 546 368 590 394 25 14 63 40 85 58 22 18 49 36 60 42 11 5 29 14 40 21 70 44 141 89 236 151 60 39 138 89 174 111 36 22 80 49 98 60 18 12 73 45 122 74 50 29 131 78 182 109 51 32 148 90 215 131 68 41 143 86 168 101 74 45 193 111 325 180 33 18 65 36 70 40 6 4 44 25 85 47 75 40 113 61 245 134 112 62 835 419 849 419 3 0 62 27 132 60 69 33 129 60 134 60 4 0 41 15 81 34 41 18 117 50 169 70 52 21 113 46 136 57 22 10 44 19 49 19 5 0 48 15 95 34 47 19 105 41 130 49 106 35 258 88 290 101 48 20 318 106 333 106 7 1 30 9 52 20 22 11 52 19 67 20 15 0 51 9 79 20 29 12 86 29 128 39 42 11 103 27 136 36 33 10 87 23 120 30 33 7 92 21 130 30 162 38 244 55 307 65 37 6 78 14 90 19 13 5 52 12 88 15 36 4 108 16 160 26 52 10 124 21 160 24 36 3 103 12 150 20 47 8 159 20 250 26 91 6 244 17 340 25 238 19 879 15 1165 -8 116 -9 271 -21 345 -27 145 -11 300 -29 500 -60 69 -11 188 -29 265 -40 77 -11 181 -29 230 -40 50 -10 151 -31 225 -46 158 -31 342 -75 590 -143 41 -11 102 -27 135 -36 141 -38 468 -139 545 -169 19 -8 69 -24 110 -36 83 -26 300 -101 370 -130 102 -41 153 -60 166 -60 7 0 38 -11 68 -25 30 -14 58 -25 61 -25 4 0 21 -6 38 -14 18 -8 59 -25 92 -39 123 -51 513 -222 611 -268 56 -26 112 -50 125 -54 41 -13 407 -197 689 -347 36 -19 119 -65 185 -102 66 -38 158 -89 205 -114 47 -25 141 -79 210 -120 69 -41 154 -90 190 -110 36 -19 79 -45 95 -58 32 -23 234 -144 242 -144 2 0 21 -13 41 -29 20 -16 53 -38 72 -49 60 -34 294 -183 311 -198 8 -8 18 -14 22 -14 7 0 117 -71 294 -191 57 -38 106 -69 110 -69 4 0 16 -9 28 -20 12 -11 55 -43 96 -71 223 -151 268 -183 309 -214 25 -19 52 -38 60 -42 8 -4 67 -45 130 -92 63 -47 174 -128 245 -181 72 -53 141 -104 155 -113 59 -40 127 -90 154 -114 15 -14 44 -36 64 -50 20 -13 39 -28 42 -32 3 -4 27 -22 54 -40 58 -40 169 -123 212 -160 57 -48 117 -96 140 -111 25 -17 231 -179 340 -267 39 -32 101 -80 138 -108 239 -180 333 -260 536 -460 312 -308 670 -683 790 -828 14 -17 48 -56 76 -86 29 -31 69 -78 89 -106 21 -27 53 -65 71 -85 18 -19 47 -55 65 -80 18 -25 45 -61 61 -80 33 -40 27 -32 96 -125 29 -38 62 -81 73 -95 11 -14 32 -45 46 -70 15 -25 38 -61 53 -80 14 -19 32 -47 39 -62 8 -15 21 -36 30 -45 9 -10 22 -29 29 -43 7 -14 25 -46 41 -72 16 -25 27 -49 24 -52 -4 -3 -1 -6 5 -6 7 0 11 -3 10 -7 -4 -11 21 -76 65 -173 14 -30 38 -84 53 -120 16 -36 33 -68 39 -72 5 -4 6 -8 2 -8 -5 0 0 -12 10 -27 10 -16 32 -57 48 -93 17 -36 33 -67 37 -70 4 -3 16 -26 27 -50 12 -25 34 -67 50 -95 17 -27 37 -63 47 -80 9 -16 38 -61 64 -100 26 -38 49 -74 51 -80 11 -26 112 -172 193 -279 50 -65 98 -128 106 -140 17 -24 11 -18 110 -127 130 -145 337 -343 431 -412 13 -10 78 -58 144 -107 66 -49 124 -90 128 -90 5 0 49 -27 98 -60 49 -33 89 -57 89 -54 0 4 6 2 13 -4 10 -8 97 -55 197 -108 51 -26 187 -88 220 -99 10 -4 85 -36 105 -45 45 -21 367 -134 430 -150 17 -4 80 -22 141 -38 61 -17 142 -38 180 -46 38 -8 110 -24 160 -35 49 -11 106 -22 125 -25 19 -3 99 -14 179 -25 80 -12 161 -23 180 -26 50 -7 273 -24 415 -32 155 -8 496 -8 655 1 69 4 170 9 225 11 114 6 174 11 335 30 63 7 122 13 130 13 8 0 29 3 45 5 17 3 64 11 105 17 41 6 117 18 168 27 51 8 96 13 98 10 3 -3 -3 -8 -13 -11 -33 -10 -228 -48 -245 -48 -10 1 -20 -3 -23 -9 -4 -5 -24 -9 -45 -9 -21 0 -83 -9 -137 -19 -54 -11 -125 -22 -158 -25 -33 -3 -76 -8 -95 -11 -34 -4 -83 -10 -165 -20 -56 -7 -138 -14 -215 -20 -36 -3 -90 -7 -120 -10 -210 -18 -598 -24 -785 -12 -254 16 -410 29 -418 34 -5 3 -25 7 -45 9 -21 1 -55 6 -77 9 -22 3 -57 8 -79 10 -21 3 -41 7 -45 9 -4 3 -31 7 -61 11 -29 3 -56 8 -60 10 -4 2 -33 9 -66 14 -32 6 -69 13 -81 16 -46 10 -69 16 -108 25 -68 15 -189 47 -215 58 -14 5 -28 10 -33 10 -4 1 -44 13 -90 28 -45 14 -95 30 -112 34 -34 10 -205 74 -250 94 -98 45 -125 56 -138 56 -8 0 -20 7 -27 15 -7 8 -19 15 -26 15 -13 0 -78 33 -101 52 -7 6 -13 8 -13 4 0 -4 -24 7 -52 23 -29 16 -73 39 -98 52 -25 13 -56 30 -70 39 -14 9 -72 47 -130 85 -167 108 -248 171 -398 305 -166 149 -292 281 -412 433 -8 11 -20 24 -25 31 -6 6 -22 27 -35 46 -13 19 -27 37 -30 40 -4 3 -26 32 -51 65 -24 33 -47 64 -52 70 -4 5 -28 42 -54 80 -25 39 -50 72 -55 73 -4 2 -6 7 -3 12 2 4 -6 20 -19 35 -13 15 -32 43 -43 64 -12 20 -44 74 -73 121 -28 47 -59 98 -68 114 -10 15 -27 43 -38 61 -12 18 -25 43 -29 56 -5 13 -18 40 -31 59 -12 19 -33 60 -45 90 -13 30 -26 57 -30 60 -6 5 -72 141 -82 173 -4 9 -14 17 -23 17 -13 0 -15 -6 -9 -27 8 -33 13 -69 20 -141 2 -29 6 -56 9 -60 2 -4 7 -25 10 -47 4 -22 11 -67 17 -100 7 -33 13 -69 15 -80 9 -56 17 -91 48 -217 18 -75 36 -140 39 -145 4 -5 9 -23 11 -39 9 -49 96 -307 117 -345 7 -13 16 -37 20 -54 10 -39 118 -278 129 -285 5 -3 18 -26 30 -50 36 -75 63 -124 77 -138 7 -7 13 -20 13 -28 0 -8 4 -14 9 -14 5 0 14 -13 21 -29 6 -16 19 -37 28 -48 9 -10 41 -54 71 -98 30 -44 57 -82 60 -85 4 -3 38 -43 78 -90 142 -169 394 -393 572 -507 81 -53 282 -163 296 -163 7 0 18 -7 25 -15 7 -8 16 -15 21 -15 5 0 38 -13 74 -30 36 -16 70 -30 76 -30 6 0 20 -5 32 -12 12 -7 27 -13 32 -15 12 -3 193 -62 215 -71 8 -3 20 -6 25 -7 6 -2 53 -14 105 -28 52 -14 131 -32 175 -41 44 -9 91 -19 105 -21 29 -6 155 -24 220 -30 25 -3 63 -8 86 -11 113 -15 358 -22 614 -18 157 2 299 6 315 8 17 2 68 7 115 11 46 4 93 8 105 10 11 1 65 8 120 15 55 7 109 13 120 15 11 2 40 6 65 9 67 9 171 28 230 40 14 3 45 8 69 11 24 3 47 7 51 10 4 2 22 7 41 9 19 3 43 7 54 10 64 17 105 25 142 29 23 3 48 9 55 13 7 4 19 9 28 10 17 3 95 21 125 29 39 10 150 37 165 40 8 2 17 4 20 6 3 1 10 3 15 4 24 4 74 18 130 36 33 11 112 35 175 54 63 19 129 39 145 45 70 25 273 93 310 104 22 6 45 14 51 18 6 4 46 19 90 34 43 14 91 32 106 40 15 8 31 13 35 12 4 -1 19 3 33 9 14 6 103 44 198 84 95 39 175 76 179 81 3 6 1 13 -5 17 -10 6 -36 136 -34 171 0 8 -4 35 -9 60 -22 105 -27 128 -33 165 -3 13 -7 28 -9 33 -3 4 -8 28 -12 52 -7 53 -22 115 -35 150 -6 14 -12 39 -14 55 -6 38 -25 114 -36 140 -5 11 -13 38 -18 60 -6 22 -18 60 -27 85 -9 25 -19 56 -21 69 -3 13 -14 41 -24 62 -11 21 -20 45 -20 53 0 9 -11 39 -24 68 -25 54 -59 130 -91 203 -10 22 -30 68 -47 102 -16 35 -29 66 -30 70 0 5 -9 20 -20 36 -11 15 -16 27 -11 27 4 0 3 4 -3 8 -6 4 -19 21 -28 37 -9 17 -25 44 -36 60 -11 17 -29 49 -40 72 -12 22 -30 49 -41 59 -10 9 -19 23 -19 31 0 7 -4 13 -10 13 -5 0 -10 4 -10 9 0 11 -114 165 -178 241 -49 58 -267 277 -318 320 -16 14 -46 37 -66 52 -20 15 -42 33 -50 41 -26 24 -170 130 -211 154 -62 35 -81 47 -87 53 -3 3 -30 18 -60 33 -30 16 -84 44 -120 62 -79 41 -177 86 -245 110 -27 10 -54 22 -60 27 -5 4 -18 8 -30 8 -12 0 -26 5 -33 12 -7 7 -12 8 -12 4 0 -5 -6 -4 -12 1 -13 11 -179 64 -258 83 -316 76 -632 123 -877 129 -22 1 -34 21 -13 21 11 0 103 62 108 73 2 4 12 7 23 7 10 0 19 4 19 8 0 4 30 28 68 52 37 24 69 46 72 50 3 3 18 14 35 24 16 11 34 23 40 28 5 4 42 32 80 61 39 28 72 54 75 57 3 3 34 25 70 50 36 24 101 76 146 115 44 38 94 81 110 95 66 55 195 171 250 224 54 52 58 57 42 70 -10 7 -25 29 -33 50 -8 20 -20 36 -25 36 -5 0 -13 12 -16 28 -4 15 -10 29 -14 32 -4 3 -32 43 -63 90 -31 47 -60 90 -65 95 -4 6 -17 26 -29 45 -12 19 -30 44 -40 55 -10 11 -29 36 -43 55 -114 165 -382 435 -540 543 -25 17 -47 34 -50 38 -3 4 -34 24 -70 45 -36 20 -68 42 -72 48 -4 6 -8 8 -8 4 0 -4 -31 11 -70 33 -38 21 -73 39 -77 39 -4 0 -26 9 -48 19 -44 21 -94 43 -110 47 -5 2 -62 19 -125 39 -63 19 -135 38 -158 40 -24 3 -47 7 -51 9 -4 3 -34 7 -66 11 -33 4 -85 10 -115 14 -61 8 -323 6 -392 -3 -24 -3 -70 -8 -103 -12 -55 -5 -280 -48 -315 -59 -8 -3 -42 -11 -75 -19 -68 -16 -207 -61 -237 -77 -11 -6 -30 -13 -43 -15 -26 -5 -377 -153 -385 -163 -8 -10 -100 -51 -114 -51 -8 0 -16 -4 -18 -8 -1 -5 -30 -23 -63 -42 -129 -72 -330 -193 -333 -201 -2 -5 -8 -9 -13 -9 -5 0 -40 -22 -78 -50 -38 -27 -74 -50 -80 -50 -6 0 -11 -4 -11 -10 0 -5 -5 -10 -10 -10 -6 0 -16 -5 -23 -11 -7 -5 -35 -27 -64 -47 -82 -58 -285 -213 -315 -240 l-27 -24 -88 43 c-48 24 -90 43 -93 44 -3 0 -9 3 -15 7 -5 3 -77 40 -159 82 -150 76 -186 101 -186 132 0 15 -28 73 -41 84 -3 3 -11 20 -18 38 -8 17 -17 32 -22 32 -5 0 -11 11 -15 24 -3 13 -17 34 -30 47 -13 12 -24 27 -24 33 0 6 -19 31 -41 56 -23 25 -54 63 -69 85 -61 87 -309 308 -491 437 -20 14 -56 45 -80 67 -23 23 -57 49 -75 57 -19 9 -34 20 -34 25 0 5 -26 28 -57 52 -32 24 -78 62 -103 85 -25 23 -50 42 -56 42 -6 0 -35 23 -64 50 -29 28 -58 50 -64 50 -6 0 -29 17 -52 38 -22 20 -60 52 -85 69 -51 38 -177 135 -199 155 -39 33 -99 78 -105 78 -4 0 -29 18 -54 41 -50 43 -49 43 -101 79 -19 14 -37 27 -40 30 -3 3 -34 25 -70 49 -36 24 -72 51 -80 60 -8 9 -29 25 -47 36 -17 11 -76 54 -130 95 -54 41 -106 80 -115 85 -9 6 -63 45 -120 87 -206 154 -308 228 -313 228 -2 0 -15 10 -28 23 -13 12 -36 30 -53 39 -48 28 -65 40 -144 98 -41 30 -120 85 -175 121 -55 36 -134 88 -175 115 -41 27 -79 51 -85 54 -32 16 -126 82 -122 86 10 10 604 -55 932 -102 176 -25 598 -106 790 -150 236 -55 434 -123 620 -211 708 -336 1279 -508 1785 -539 167 -10 468 -7 595 6 767 79 1602 427 2328 971 269 202 453 363 726 632 371 368 675 731 959 1146 51 74 92 131 92 127 0 -20 -192 -315 -339 -521 -434 -610 -989 -1186 -1531 -1591 -700 -523 -1485 -856 -2186 -926 -186 -18 -594 -15 -784 6 -443 49 -966 198 -1467 417 -176 77 -189 80 -138 33 223 -206 584 -472 845 -621 518 -297 1001 -436 1520 -436 713 0 1385 278 2075 857 218 183 577 549 791 806 300 360 690 943 937 1400 16 30 38 69 48 85 31 52 209 413 230 467 l21 53 -35 30 c-527 460 -1083 793 -1610 964 -765 248 -1520 185 -2268 -190 -203 -101 -453 -259 -639 -402 -47 -36 -86 -64 -88 -62 -2 2 8 41 22 86 91 299 192 810 231 1162 19 172 19 163 -4 186 -36 36 -429 154 -650 195 -246 47 -566 59 -776 30z m1392 -436 c-3 -8 -6 -5 -6 6 -1 11 2 17 5 13 3 -3 4 -12 1 -19z m-41 -170 c-20 -73 -45 -164 -56 -203 -12 -38 -28 -94 -36 -123 -44 -165 -202 -544 -316 -762 -134 -257 -198 -351 -332 -493 -158 -168 -272 -299 -399 -457 -145 -182 -305 -307 -558 -439 -342 -178 -621 -256 -1044 -292 -142 -12 -603 -7 -640 7 -13 5 -16 3 -13 -7 9 -27 379 -143 633 -198 82 -18 262 -39 395 -47 150 -8 397 19 563 61 29 8 29 8 -24 -76 -28 -46 -70 -114 -91 -151 -37 -64 -42 -68 -75 -68 -74 0 -1029 128 -1298 174 -44 7 -192 32 -330 55 -466 77 -1035 188 -1035 202 0 10 311 77 505 109 99 16 205 34 235 39 147 27 322 34 495 20 212 -17 634 -18 780 -1 265 32 501 89 693 168 142 59 329 159 389 208 10 8 54 40 98 72 330 234 658 592 905 988 147 236 318 583 425 861 52 136 154 458 156 493 0 9 3 12 5 5 3 -6 -11 -71 -30 -145z m-617 -6708 c34 -25 132 -115 219 -200 147 -146 373 -343 452 -395 19 -13 49 -35 65 -50 17 -15 50 -38 75 -53 25 -14 59 -35 76 -48 69 -51 397 -214 430 -214 5 0 21 -6 36 -14 15 -8 42 -17 60 -21 18 -4 38 -12 45 -17 7 -5 27 -12 45 -14 18 -3 69 -13 113 -24 175 -41 189 -43 415 -64 193 -17 530 -10 680 14 30 5 73 11 95 15 65 9 226 39 260 49 48 14 63 17 85 20 14 2 32 6 40 8 8 3 33 10 55 16 22 6 63 18 90 27 28 9 59 18 70 20 28 5 226 76 304 109 36 14 69 26 74 26 5 0 25 7 45 17 88 39 233 107 307 143 102 49 129 58 95 30 -14 -11 -31 -20 -37 -20 -7 0 -13 -4 -13 -9 0 -7 -83 -50 -395 -202 -44 -22 -116 -52 -160 -68 -44 -16 -125 -45 -180 -65 -106 -39 -151 -55 -175 -61 -8 -3 -46 -14 -84 -25 -38 -10 -105 -22 -150 -25 -103 -7 -183 -14 -221 -20 -17 -3 -43 -7 -60 -10 -16 -2 -57 -7 -90 -10 -58 -5 -96 -10 -141 -19 -12 -2 -39 -7 -60 -10 -22 -4 -61 -11 -89 -16 -27 -6 -63 -12 -80 -15 -16 -2 -41 -6 -54 -9 -29 -6 -161 -8 -221 -3 -25 2 -88 7 -140 11 -52 4 -109 12 -126 17 -17 5 -48 11 -70 14 -21 2 -95 20 -164 40 -69 20 -129 38 -135 39 -5 2 -23 9 -40 16 -16 7 -32 14 -35 15 -3 1 -12 5 -20 8 -21 9 -74 30 -80 32 -7 2 -57 25 -130 59 -36 16 -80 41 -97 54 -18 14 -33 21 -33 17 0 -11 -276 161 -314 197 -11 10 -23 18 -27 18 -4 0 -14 6 -21 13 -7 7 -51 43 -98 81 -107 86 -193 161 -290 253 -41 39 -79 68 -83 64 -8 -8 80 -170 134 -248 16 -23 29 -46 29 -51 0 -5 7 -15 16 -23 8 -7 24 -29 34 -48 10 -20 28 -46 39 -58 12 -12 21 -27 21 -33 0 -5 5 -10 10 -10 6 0 14 -10 19 -22 5 -13 29 -46 53 -74 23 -28 58 -69 76 -91 54 -67 196 -204 296 -286 21 -18 53 -44 70 -58 43 -36 188 -127 264 -165 l63 -31 -73 -23 c-165 -51 -186 -59 -217 -75 l-32 -16 -37 38 c-37 39 -193 209 -222 243 -28 32 -112 125 -188 208 -43 46 -102 111 -133 145 -32 34 -73 82 -93 107 -21 25 -66 77 -100 115 -35 39 -77 86 -92 105 -16 19 -37 44 -47 55 -17 18 -63 71 -124 144 -26 29 -28 37 -13 46 6 4 19 23 29 44 18 34 19 53 14 211 -5 153 -4 172 9 164 8 -5 43 -29 77 -54z m4511 -455 c0 -2 -10 -9 -22 -15 -22 -11 -22 -10 -4 4 21 17 26 19 26 11z m-105 -65 c-3 -5 -10 -10 -15 -10 -4 0 -32 -16 -61 -35 -59 -38 -85 -47 -49 -15 13 11 28 20 35 20 6 0 26 11 45 25 35 26 56 33 45 15z m2210 -3988 c-6 -5 -57 -19 -115 -32 -58 -13 -111 -25 -117 -28 -7 -2 -13 0 -13 6 0 6 22 13 49 17 26 3 79 15 117 25 82 22 91 23 79 12z"/> <path style="fill-opacity:0.81993568;fill:#42977d" id="path4" d="M29890 29705 c-180 -14 -300 -25 -525 -51 -142 -16 -163 -19 -405 -58 -174 -28 -201 -34 -345 -66 -49 -11 -157 -34 -239 -51 -82 -16 -156 -33 -165 -38 -9 -5 -41 -14 -71 -20 -60 -12 -194 -50 -395 -111 -71 -22 -155 -48 -185 -57 -30 -9 -68 -22 -85 -29 -16 -6 -64 -22 -105 -35 -41 -13 -86 -29 -100 -36 -14 -7 -29 -13 -35 -13 -5 0 -41 -13 -80 -29 -38 -17 -108 -44 -155 -61 -47 -18 -98 -38 -115 -45 -16 -8 -79 -35 -140 -60 -60 -26 -114 -50 -120 -54 -5 -5 -26 -11 -44 -15 -54 -10 -270 -115 -331 -161 -77 -57 -186 -120 -250 -143 -79 -29 -199 -84 -241 -110 -20 -12 -41 -22 -47 -22 -6 0 -17 -6 -24 -13 -14 -13 -61 -45 -93 -63 -57 -31 -94 -54 -129 -78 -21 -14 -45 -26 -54 -26 -18 0 -92 -41 -92 -51 0 -20 -35 -39 -70 -39 -38 0 -116 -34 -150 -65 -9 -8 -21 -15 -27 -15 -6 0 -44 -21 -85 -47 -102 -67 -110 -72 -138 -85 -14 -7 -29 -18 -33 -25 -4 -7 -14 -13 -22 -13 -7 0 -15 -4 -17 -8 -4 -9 -96 -72 -106 -72 -4 0 -18 -10 -32 -22 -14 -13 -42 -32 -64 -43 -21 -11 -57 -36 -80 -55 -22 -20 -66 -53 -96 -73 -50 -34 -74 -52 -148 -105 -63 -45 -164 -126 -188 -149 -7 -8 -17 -14 -21 -13 -4 0 -39 -29 -78 -64 -113 -102 -142 -126 -153 -126 -6 0 -19 -11 -30 -25 -11 -14 -22 -25 -24 -25 -11 0 -128 -118 -128 -128 0 -7 -4 -12 -10 -12 -5 0 -10 -7 -10 -16 0 -12 -6 -15 -21 -11 -15 4 -32 -5 -59 -31 -21 -20 -73 -68 -115 -107 -79 -73 -217 -207 -272 -266 -17 -19 -36 -38 -42 -44 -40 -37 -161 -168 -161 -174 0 -3 -9 -12 -20 -19 -11 -7 -20 -17 -20 -22 0 -5 -26 -37 -57 -71 -32 -33 -69 -75 -83 -92 -14 -17 -41 -48 -61 -69 -20 -20 -35 -39 -34 -40 2 -2 -3 -9 -11 -16 -8 -7 -14 -9 -14 -5 0 4 -6 -2 -13 -14 -6 -11 -38 -60 -69 -107 -32 -48 -67 -105 -79 -128 -12 -23 -56 -78 -98 -123 -42 -44 -117 -134 -166 -200 -50 -66 -98 -129 -107 -139 -10 -10 -15 -22 -13 -26 2 -3 -5 -13 -16 -20 -10 -8 -19 -20 -19 -26 0 -6 -20 -41 -45 -77 -25 -37 -45 -71 -45 -77 0 -5 -3 -10 -8 -10 -4 0 -13 -13 -20 -28 -6 -16 -21 -38 -32 -50 -11 -12 -20 -26 -20 -32 0 -5 -5 -10 -11 -10 -6 0 -8 -7 -5 -15 3 -9 -1 -18 -8 -21 -8 -3 -19 -19 -25 -35 -5 -16 -15 -29 -21 -29 -6 0 -9 -4 -5 -9 3 -5 -1 -16 -10 -24 -16 -17 -60 -89 -118 -197 -22 -41 -43 -77 -47 -80 -3 -3 -12 -21 -20 -40 -8 -19 -17 -37 -20 -40 -4 -3 -19 -32 -35 -65 -16 -33 -34 -67 -40 -75 -7 -8 -20 -36 -30 -62 -10 -27 -22 -48 -26 -48 -5 0 -9 -9 -9 -19 0 -11 -7 -26 -15 -35 -8 -8 -15 -19 -15 -25 0 -17 -43 -101 -52 -101 -4 0 -8 -9 -8 -21 0 -11 -9 -37 -19 -57 -53 -103 -61 -121 -61 -136 0 -9 -4 -16 -10 -16 -5 0 -10 -7 -10 -15 0 -8 -5 -23 -10 -33 -18 -31 -100 -235 -105 -260 -4 -26 -24 -53 -26 -37 -1 6 -7 -15 -15 -45 -20 -83 -59 -192 -66 -184 -7 6 -28 -60 -28 -87 0 -9 -7 -22 -15 -29 -9 -7 -13 -15 -11 -18 3 -2 -4 -27 -16 -56 -11 -28 -22 -62 -24 -75 -3 -13 -9 -32 -14 -42 -6 -10 -10 -28 -10 -41 0 -24 -19 -86 -51 -172 -11 -27 -19 -60 -19 -75 0 -14 -7 -39 -16 -56 -14 -27 -38 -119 -49 -188 -2 -15 -7 -33 -11 -39 -5 -7 -11 -30 -15 -53 -4 -22 -12 -58 -18 -80 -14 -51 -32 -132 -37 -169 -2 -16 -9 -35 -15 -42 -6 -7 -8 -17 -5 -23 3 -5 2 -20 -3 -34 -5 -13 -12 -44 -15 -68 -9 -78 -36 -162 -55 -173 -6 -4 -7 -14 -4 -22 3 -9 1 -19 -5 -23 -6 -3 -13 -20 -16 -36 -3 -17 -8 -41 -12 -55 -11 -48 -23 -114 -29 -164 -2 -21 -7 -57 -11 -80 -3 -23 -7 -52 -9 -66 -1 -14 -5 -32 -8 -40 -3 -8 -8 -38 -11 -67 -3 -38 -1 -55 10 -64 10 -8 11 -15 4 -24 -7 -9 -7 -15 -1 -19 9 -6 8 -56 -3 -123 -5 -28 -14 -146 -21 -263 -2 -36 -7 -92 -10 -125 -4 -33 -8 -105 -10 -160 -2 -58 -9 -115 -18 -135 -15 -37 -16 -122 -1 -127 5 -2 8 -93 6 -219 -2 -125 1 -220 6 -227 5 -7 8 -20 7 -29 -2 -10 0 -18 3 -18 4 0 7 -19 8 -43 0 -23 4 -91 7 -152 7 -110 8 -124 6 -147 -3 -58 5 -174 12 -179 12 -7 13 -54 4 -91 -5 -21 -4 -28 6 -28 8 0 15 -12 15 -27 1 -16 5 -57 8 -93 4 -36 7 -101 7 -145 1 -73 13 -164 55 -408 13 -77 33 -130 55 -147 7 -5 16 -66 25 -170 3 -35 9 -69 13 -75 5 -5 11 -35 15 -65 4 -30 11 -59 16 -65 4 -5 9 -13 9 -17 1 -5 1 -9 2 -10 0 -2 2 -10 4 -19 1 -8 13 -53 25 -100 37 -141 47 -188 42 -194 -3 -3 0 -5 7 -5 7 0 10 -4 7 -9 -3 -5 1 -22 9 -38 8 -17 17 -43 19 -59 5 -44 10 -58 21 -66 5 -4 10 -20 11 -35 1 -15 8 -41 15 -58 7 -16 11 -34 10 -39 -1 -4 3 -13 8 -20 5 -6 11 -25 13 -41 2 -17 9 -36 16 -44 7 -7 11 -20 8 -27 -3 -8 -1 -14 4 -14 6 0 10 -9 10 -19 0 -11 5 -23 11 -26 6 -4 8 -13 5 -21 -3 -7 -1 -16 4 -19 6 -4 10 -17 10 -31 0 -14 4 -23 9 -20 5 3 11 -16 15 -43 3 -27 13 -54 21 -61 8 -7 15 -23 15 -36 0 -12 5 -26 11 -29 5 -4 8 -12 6 -18 -2 -7 3 -17 11 -23 9 -6 15 -25 15 -43 0 -17 3 -31 6 -31 4 0 15 -22 26 -50 11 -27 23 -50 28 -50 5 0 7 -7 3 -15 -3 -8 -1 -15 4 -15 5 0 15 -19 22 -42 6 -24 15 -45 18 -48 19 -15 76 -149 72 -167 -2 -7 2 -13 9 -13 6 0 9 -6 6 -14 -3 -7 1 -25 8 -40 8 -15 14 -28 13 -29 -2 -5 100 -226 150 -322 8 -16 34 -55 58 -85 23 -30 45 -66 49 -78 9 -32 50 -116 85 -177 16 -27 37 -65 46 -82 10 -18 24 -33 31 -33 8 0 12 -4 8 -9 -6 -11 25 -81 37 -81 4 0 8 -4 8 -10 0 -10 46 -81 58 -90 4 -3 23 -37 42 -77 19 -39 43 -75 53 -78 9 -4 17 -15 17 -26 0 -11 6 -22 14 -25 8 -3 12 -12 9 -20 -3 -8 1 -14 11 -14 9 0 16 -7 16 -14 0 -8 11 -27 25 -42 14 -15 25 -33 25 -40 0 -8 7 -14 16 -14 8 0 13 -4 9 -9 -6 -10 51 -101 64 -101 4 0 13 -16 21 -35 8 -19 19 -35 26 -35 7 0 17 -13 23 -30 5 -16 15 -30 20 -30 6 0 8 -6 5 -13 -3 -8 2 -20 11 -27 8 -7 15 -16 15 -21 0 -5 8 -17 18 -27 30 -32 62 -72 62 -78 0 -3 21 -32 48 -65 26 -33 58 -75 72 -93 46 -61 111 -141 162 -198 27 -31 49 -59 49 -62 -1 -8 34 -50 84 -101 22 -22 74 -79 115 -125 42 -47 101 -109 133 -139 31 -30 57 -58 57 -62 0 -11 258 -268 331 -330 30 -26 81 -73 114 -105 33 -33 83 -79 110 -103 28 -24 77 -68 111 -98 33 -30 70 -60 81 -66 11 -7 54 -40 94 -74 149 -126 235 -195 277 -221 24 -15 71 -51 105 -80 34 -28 85 -63 112 -77 28 -13 60 -33 72 -45 12 -11 25 -20 29 -20 4 0 26 -16 50 -35 23 -19 53 -39 66 -45 21 -10 67 -40 113 -75 10 -8 24 -15 30 -15 7 0 20 -9 30 -20 10 -11 24 -20 32 -20 7 0 13 -3 13 -7 0 -5 10 -13 23 -19 44 -21 192 -116 195 -125 2 -5 8 -7 13 -3 5 3 9 1 9 -4 0 -6 12 -15 28 -21 15 -6 54 -28 87 -49 33 -20 86 -51 117 -67 32 -17 58 -33 58 -37 0 -5 7 -8 15 -8 9 0 32 -10 53 -23 20 -12 65 -36 99 -52 35 -17 63 -33 63 -37 0 -5 6 -8 13 -8 6 0 39 -14 71 -30 32 -17 64 -30 71 -30 7 0 17 -6 23 -12 6 -7 33 -22 61 -33 28 -11 51 -23 51 -27 0 -4 8 -8 18 -8 9 0 31 -9 48 -19 17 -10 45 -22 62 -26 18 -3 32 -11 32 -16 0 -5 5 -9 12 -9 10 0 69 -25 194 -81 22 -11 52 -19 67 -19 15 0 27 -5 27 -11 0 -5 4 -8 9 -5 5 3 11 -1 15 -9 3 -8 14 -15 25 -15 19 0 90 -29 101 -41 7 -8 90 -40 90 -34 0 2 21 -5 46 -15 25 -11 55 -22 67 -24 38 -8 92 -30 102 -43 6 -7 51 -22 100 -34 50 -12 110 -29 135 -39 25 -10 47 -18 50 -17 11 1 86 -26 97 -35 7 -5 17 -7 23 -3 5 3 10 2 10 -3 0 -6 8 -8 18 -5 10 2 45 -5 78 -17 32 -12 68 -24 79 -26 11 -2 38 -8 60 -14 22 -6 49 -13 60 -15 31 -7 106 -26 150 -38 22 -7 42 -12 45 -13 10 -1 76 -15 139 -30 52 -13 65 -13 72 -2 6 10 13 8 29 -10 12 -12 26 -20 31 -16 5 3 15 1 22 -4 7 -5 30 -13 52 -17 22 -5 42 -9 45 -10 9 -3 70 -13 205 -34 244 -38 340 -52 450 -61 61 -6 173 -17 250 -26 77 -9 250 -18 385 -22 135 -3 310 -8 390 -10 201 -5 747 15 910 33 74 8 188 20 252 25 65 6 134 18 154 26 42 18 45 18 299 39 204 17 377 40 403 54 10 5 35 12 57 15 22 4 68 16 102 26 37 12 75 17 97 13 19 -3 58 1 88 8 29 7 78 12 108 10 34 -1 104 9 180 27 69 17 181 42 250 57 192 42 452 111 585 155 66 22 212 69 325 106 113 36 219 77 237 90 17 13 36 24 42 24 5 0 38 12 73 26 35 14 86 35 113 46 28 11 73 31 100 43 28 13 68 26 90 30 22 3 85 28 140 55 55 26 125 59 155 73 136 62 257 122 285 141 27 19 124 70 306 162 36 18 79 44 95 57 16 13 72 47 124 76 125 69 144 81 282 173 64 43 120 78 123 78 8 0 128 80 140 94 6 6 30 24 55 40 63 41 163 114 215 156 23 19 86 67 140 105 53 39 130 100 171 136 41 37 94 80 117 95 23 15 80 64 128 109 47 44 113 103 148 130 35 28 67 58 72 68 5 9 24 23 42 31 32 13 543 525 594 594 15 20 50 62 79 92 28 30 82 93 119 140 37 47 89 110 116 140 27 30 64 76 81 102 18 26 86 116 151 202 64 85 127 173 140 196 12 24 28 45 34 47 7 3 47 60 88 127 42 66 98 155 125 196 28 41 76 120 109 175 32 55 79 132 103 170 25 39 82 142 128 230 45 87 93 175 105 195 23 36 44 80 121 255 25 55 62 134 83 175 21 41 59 127 84 190 25 63 69 174 98 245 54 134 136 362 170 473 49 159 61 201 74 250 7 29 18 58 23 65 11 13 28 72 35 122 3 17 10 43 17 60 12 33 73 285 120 505 17 80 38 174 46 210 35 147 108 659 124 870 5 63 16 210 25 325 13 165 16 305 13 650 -5 463 -17 660 -64 1035 -13 107 -24 220 -23 250 0 30 -5 80 -11 110 -17 84 -38 209 -45 270 -6 53 -35 184 -75 340 -11 41 -36 143 -55 225 -35 151 -51 214 -86 335 -10 36 -21 77 -25 93 -3 15 -10 30 -15 33 -5 3 -9 14 -9 24 0 30 -59 229 -90 305 -5 11 -27 76 -50 145 -23 69 -56 152 -72 185 -16 33 -36 76 -43 95 -7 19 -31 82 -54 140 -22 58 -41 109 -41 113 0 15 -80 176 -90 182 -6 3 -10 13 -10 22 0 16 -89 204 -214 453 -107 211 -143 277 -194 350 -50 73 -82 126 -82 139 0 17 -227 375 -301 476 -39 54 -139 199 -164 239 -11 17 -49 70 -85 116 -35 47 -92 123 -127 170 -34 47 -89 114 -122 150 -32 36 -79 90 -104 120 -24 30 -60 69 -78 86 -19 17 -44 42 -56 56 -11 14 -27 30 -35 34 -17 12 -83 95 -131 165 -45 67 -369 389 -391 389 -9 0 -57 41 -107 90 -50 50 -123 116 -162 148 -40 31 -78 65 -85 75 -7 9 -37 35 -66 56 -29 22 -59 46 -67 53 -26 26 -212 173 -369 292 -85 65 -171 132 -190 149 -57 52 -120 96 -270 192 -77 50 -195 125 -261 168 -65 42 -122 77 -125 77 -3 0 -18 8 -32 18 -34 24 -164 96 -331 184 -207 109 -444 224 -603 293 -59 25 -120 53 -135 60 -16 8 -34 15 -41 15 -8 0 -26 8 -40 19 -15 10 -43 22 -62 26 -19 4 -53 17 -75 30 -22 12 -71 32 -110 44 -38 12 -82 29 -97 37 -40 22 -480 171 -542 184 -29 6 -66 13 -82 16 -16 3 -85 20 -154 39 -179 48 -437 109 -565 135 -60 12 -140 30 -178 40 -80 22 -445 81 -682 109 -177 22 -436 45 -685 61 -202 13 -839 10 -1050 -5z m1315 -133 c268 -24 517 -53 705 -82 69 -11 145 -22 170 -25 25 -4 124 -24 220 -46 96 -22 218 -49 270 -60 120 -25 276 -64 361 -89 36 -11 74 -20 83 -20 10 0 48 -10 85 -23 36 -12 78 -22 94 -21 15 0 27 -2 27 -5 0 -4 16 -8 36 -9 20 -2 51 -9 69 -17 19 -7 36 -11 39 -7 3 3 6 0 6 -7 0 -7 4 -10 8 -7 4 2 27 -4 51 -15 24 -10 49 -19 56 -19 7 0 34 -8 61 -19 66 -25 176 -62 192 -65 8 -1 17 -7 20 -12 4 -5 27 -16 52 -23 73 -22 154 -54 168 -67 6 -7 20 -15 30 -17 32 -9 72 -17 78 -17 3 1 11 -5 17 -13 7 -8 33 -20 60 -27 26 -7 47 -16 47 -21 0 -4 19 -13 42 -19 22 -7 47 -18 55 -26 8 -8 25 -14 37 -14 13 0 29 -7 36 -15 7 -8 30 -18 51 -21 22 -4 39 -11 39 -15 0 -5 18 -16 40 -25 22 -9 57 -25 77 -35 21 -11 41 -19 46 -19 5 0 21 -8 35 -18 15 -10 43 -25 62 -32 19 -8 37 -16 40 -19 3 -3 75 -42 160 -85 85 -43 157 -82 160 -85 3 -3 34 -21 70 -40 36 -19 72 -39 80 -45 8 -7 29 -18 45 -26 17 -8 39 -23 49 -32 11 -10 28 -18 38 -18 11 0 16 -4 13 -10 -3 -5 9 -16 27 -25 33 -15 134 -77 153 -92 6 -5 39 -26 75 -48 91 -55 160 -101 194 -127 15 -13 37 -27 47 -32 11 -5 19 -15 19 -23 0 -7 9 -13 20 -13 13 0 20 -7 20 -20 0 -11 7 -20 15 -20 8 0 15 -4 15 -10 0 -5 7 -10 15 -10 8 0 15 -4 15 -10 0 -5 5 -10 10 -10 12 0 14 -2 75 -55 22 -19 46 -35 52 -35 7 0 18 -9 25 -20 7 -11 18 -20 25 -20 7 0 13 -4 13 -10 0 -5 6 -10 13 -10 6 0 30 -16 52 -35 22 -19 53 -46 69 -60 16 -14 32 -25 36 -25 3 0 31 -22 61 -50 30 -27 58 -50 62 -50 5 0 5 -4 2 -10 -3 -5 1 -10 9 -10 9 0 21 -9 28 -20 7 -11 21 -20 30 -20 11 0 18 -8 18 -20 0 -14 5 -18 17 -13 12 5 15 2 10 -9 -4 -12 3 -19 24 -27 16 -5 29 -15 29 -20 0 -6 5 -11 11 -11 22 0 216 -180 245 -227 6 -10 34 -29 63 -44 29 -14 56 -30 59 -35 4 -5 20 -20 36 -32 16 -12 25 -22 20 -22 -4 0 10 -16 31 -37 104 -95 165 -155 165 -161 0 -4 16 -22 35 -41 20 -19 38 -45 41 -58 4 -12 10 -23 15 -23 5 0 9 -5 9 -11 0 -14 31 -49 156 -173 56 -56 104 -109 107 -118 4 -10 11 -18 17 -18 6 0 15 -12 20 -26 6 -14 19 -28 31 -31 13 -4 18 -11 15 -20 -4 -9 1 -17 14 -20 11 -3 20 -14 20 -24 0 -12 10 -21 26 -25 16 -4 23 -12 20 -20 -3 -8 4 -18 14 -24 11 -6 20 -17 20 -24 0 -8 7 -16 15 -20 8 -3 15 -12 15 -20 0 -7 7 -16 15 -20 8 -3 14 -9 13 -13 -2 -4 6 -18 17 -29 41 -45 65 -76 65 -86 0 -6 12 -21 26 -34 14 -13 23 -28 19 -33 -3 -5 4 -12 15 -16 13 -4 20 -15 20 -31 0 -15 6 -24 15 -24 8 0 15 -4 15 -9 0 -6 14 -25 30 -43 17 -18 30 -36 30 -40 0 -10 64 -101 110 -157 11 -13 20 -29 20 -35 0 -6 11 -24 25 -39 14 -15 23 -27 19 -27 -4 0 1 -10 12 -22 11 -13 40 -56 63 -95 24 -40 48 -73 53 -73 5 0 7 -4 3 -9 -3 -5 6 -22 20 -37 14 -15 25 -32 25 -37 0 -6 6 -18 13 -26 8 -9 21 -37 31 -63 10 -27 22 -48 27 -48 5 0 9 -9 9 -20 0 -10 9 -24 20 -30 11 -6 20 -17 20 -25 0 -8 4 -15 8 -15 4 0 16 -13 25 -30 10 -16 15 -30 11 -30 -4 0 2 -9 15 -21 12 -11 24 -34 28 -50 3 -16 9 -29 13 -29 4 0 38 -62 76 -137 38 -76 72 -139 77 -141 4 -2 7 -11 7 -21 0 -9 19 -55 42 -101 41 -82 44 -90 47 -108 0 -5 10 -19 21 -32 11 -13 20 -33 20 -45 0 -12 11 -39 25 -59 14 -20 25 -45 25 -54 0 -10 9 -24 20 -32 12 -8 20 -26 20 -42 0 -15 3 -28 8 -28 8 0 32 -70 32 -94 0 -8 4 -16 9 -18 4 -1 18 -29 30 -60 11 -32 31 -84 42 -115 12 -32 26 -61 31 -64 5 -3 10 -12 12 -20 1 -8 7 -24 14 -36 7 -12 12 -29 12 -37 0 -9 5 -16 10 -16 6 0 10 -8 10 -17 0 -15 7 -39 38 -123 3 -8 7 -23 9 -34 2 -10 10 -33 18 -50 8 -17 16 -42 17 -56 2 -14 9 -31 16 -39 7 -7 11 -20 8 -27 -3 -8 -2 -14 3 -14 5 0 12 -17 15 -37 7 -40 18 -78 42 -152 8 -24 11 -47 8 -52 -3 -5 0 -9 6 -9 7 0 10 -7 6 -15 -3 -8 -2 -15 2 -15 10 0 36 -70 29 -77 -3 -2 6 -37 19 -76 13 -39 24 -79 24 -89 0 -10 9 -51 20 -91 34 -122 103 -410 107 -447 2 -19 6 -42 10 -50 4 -8 17 -78 29 -155 12 -77 27 -160 33 -185 5 -25 10 -79 11 -120 0 -42 11 -152 25 -246 13 -93 24 -190 24 -214 -1 -25 7 -121 17 -215 27 -247 28 -1108 1 -1365 -10 -96 -18 -193 -18 -215 0 -42 -38 -349 -65 -520 -18 -114 -33 -216 -39 -259 -3 -16 -9 -34 -15 -40 -5 -5 -10 -23 -10 -40 0 -16 -11 -79 -25 -140 -14 -61 -35 -154 -46 -206 -22 -102 -35 -155 -52 -210 -6 -19 -12 -46 -12 -60 -1 -14 -9 -43 -18 -65 -16 -39 -25 -79 -26 -121 -1 -12 -9 -31 -20 -43 -10 -11 -21 -40 -25 -64 -4 -23 -13 -60 -20 -82 -33 -98 -60 -191 -58 -199 3 -10 -47 -98 -62 -108 -8 -6 -7 -10 2 -16 10 -7 7 -26 -13 -88 -15 -43 -32 -82 -38 -86 -7 -4 -8 -8 -4 -8 5 0 1 -7 -7 -16 -9 -8 -14 -20 -11 -24 3 -5 -4 -31 -16 -57 -13 -26 -23 -52 -24 -58 0 -5 -10 -31 -23 -57 -12 -26 -22 -54 -22 -62 0 -8 -11 -36 -25 -61 -14 -25 -23 -45 -20 -45 3 0 -4 -19 -16 -41 -11 -23 -23 -52 -25 -65 -2 -12 -22 -54 -44 -93 -22 -39 -40 -75 -40 -81 0 -6 -10 -30 -22 -53 -12 -23 -23 -44 -23 -47 0 -3 -11 -25 -24 -50 -13 -25 -23 -45 -22 -45 6 0 -63 -141 -70 -143 -5 -2 -9 -8 -9 -14 0 -5 -9 -21 -20 -35 -11 -14 -20 -32 -20 -40 0 -7 -11 -31 -24 -52 -14 -21 -22 -42 -19 -45 4 -3 2 -6 -4 -6 -5 0 -18 -19 -29 -42 -10 -24 -21 -45 -25 -48 -3 -3 -14 -23 -24 -45 -20 -44 -75 -128 -87 -133 -5 -2 -8 -12 -8 -23 0 -10 -3 -19 -7 -19 -5 0 -17 -20 -28 -45 -11 -25 -22 -45 -26 -45 -3 0 -14 -18 -24 -40 -10 -22 -24 -45 -31 -51 -8 -6 -28 -37 -46 -68 -17 -31 -35 -58 -38 -61 -4 -3 -22 -31 -41 -63 -18 -31 -37 -57 -41 -57 -5 0 -8 -6 -8 -13 0 -8 -13 -33 -30 -55 -16 -23 -30 -45 -30 -48 0 -3 -11 -15 -24 -25 -13 -11 -34 -39 -46 -63 -11 -25 -28 -50 -36 -56 -7 -7 -14 -19 -14 -26 0 -8 -4 -14 -9 -14 -5 0 -23 -22 -41 -49 -17 -28 -35 -51 -39 -53 -4 -2 -20 -21 -36 -43 -81 -112 -111 -151 -122 -158 -7 -4 -13 -15 -13 -23 0 -7 -17 -31 -38 -52 -20 -20 -55 -59 -77 -87 -21 -27 -45 -54 -52 -58 -7 -4 -13 -13 -13 -20 0 -7 -34 -48 -76 -92 -42 -44 -86 -96 -99 -115 -12 -19 -48 -60 -80 -90 -32 -30 -69 -68 -84 -85 -14 -16 -109 -113 -210 -216 -154 -156 -188 -185 -207 -181 -17 3 -24 0 -24 -11 0 -16 -116 -137 -131 -137 -5 0 -17 -8 -27 -18 -108 -102 -201 -184 -245 -215 -30 -21 -72 -55 -93 -76 -22 -21 -85 -71 -139 -112 -144 -106 -145 -107 -247 -185 -51 -40 -103 -75 -115 -78 -11 -4 -24 -13 -27 -21 -3 -8 -12 -15 -20 -15 -8 0 -21 -8 -28 -18 -13 -19 -218 -152 -288 -187 -22 -11 -39 -26 -40 -32 0 -7 -4 -13 -10 -13 -12 0 -109 -59 -128 -77 -7 -7 -18 -13 -23 -13 -14 0 -172 -90 -184 -104 -5 -7 -41 -29 -80 -48 -234 -119 -309 -159 -314 -166 -10 -12 -131 -72 -147 -72 -8 0 -14 -4 -14 -10 0 -5 -4 -10 -10 -10 -5 0 -39 -14 -75 -30 -36 -17 -70 -30 -75 -30 -12 0 -113 -52 -120 -62 -12 -15 -86 -35 -116 -31 -21 3 -36 -1 -48 -13 -18 -18 -84 -54 -99 -54 -4 0 -37 -14 -72 -30 -36 -17 -68 -29 -72 -28 -5 1 -22 -6 -40 -15 -18 -9 -36 -17 -40 -16 -18 3 -31 -2 -53 -23 -29 -27 -107 -56 -375 -140 -38 -12 -128 -41 -199 -65 -142 -47 -167 -52 -120 -24 18 11 35 24 38 29 3 6 21 14 39 17 17 4 52 16 77 28 25 11 52 20 60 21 8 1 29 9 47 19 18 9 38 17 46 17 8 0 20 7 27 15 6 8 15 14 18 13 14 -2 47 16 64 35 14 15 22 17 45 9 20 -7 39 -5 68 6 22 9 42 19 45 22 3 4 32 19 65 34 67 31 104 48 220 102 44 21 83 38 86 38 4 1 28 15 55 32 27 17 67 40 89 51 22 11 54 27 70 36 17 9 46 24 65 33 19 9 42 22 50 28 8 7 31 19 50 26 19 7 51 25 70 40 19 15 64 43 100 62 147 80 253 145 258 159 2 5 8 9 12 9 5 0 49 26 97 57 48 32 105 66 125 78 20 11 52 34 71 50 40 36 113 85 126 85 5 0 14 7 22 16 7 8 38 32 68 52 31 20 75 52 97 71 23 20 61 50 84 66 24 17 66 49 93 73 28 23 57 42 64 42 7 0 13 6 13 14 0 8 6 16 13 19 19 7 224 173 266 215 57 57 110 102 119 102 12 0 132 126 132 139 0 6 12 11 28 11 26 0 119 90 449 435 32 33 164 168 293 300 331 337 617 676 867 1024 90 126 314 457 352 521 18 30 63 107 101 170 38 63 103 178 145 255 42 77 86 156 96 175 20 35 151 303 214 435 45 96 79 174 135 315 53 133 63 158 82 199 10 24 32 82 48 130 16 47 43 124 60 171 18 47 35 99 39 115 5 17 17 57 28 90 12 33 31 94 43 135 13 41 31 100 41 131 11 31 19 65 19 75 0 10 12 53 25 94 14 41 25 84 25 96 0 11 9 47 20 79 11 32 20 69 20 82 0 13 9 56 20 96 32 119 100 488 130 707 111 817 113 1666 5 2445 -9 63 -10 104 -4 110 19 19 8 57 -27 93 -43 44 -89 134 -174 337 -34 83 -71 167 -81 188 -11 20 -18 37 -16 37 2 0 18 -11 37 -25 39 -29 91 -33 114 -9 19 18 20 65 5 131 -23 102 -61 250 -75 294 -7 26 -14 54 -14 64 0 10 -12 54 -26 99 -14 44 -33 104 -41 131 -31 99 -70 111 -129 39 -50 -60 -68 -66 -151 -49 -37 8 -93 15 -123 15 -50 0 -56 2 -57 22 -1 11 -8 25 -15 29 -7 5 -9 9 -4 9 5 0 4 6 -1 13 -6 6 -10 19 -11 27 0 15 -55 179 -72 215 -5 11 -12 31 -16 45 -3 14 -24 61 -45 106 -22 44 -39 83 -39 86 0 3 18 8 39 12 37 6 91 51 91 77 0 21 60 7 101 -24 42 -33 125 -67 159 -67 9 0 25 9 35 20 26 29 16 88 -34 200 -24 52 -55 133 -71 180 -25 75 -60 153 -89 200 -6 8 -12 27 -16 43 -3 15 -14 36 -25 47 -11 11 -20 22 -20 25 0 12 -94 202 -108 218 -8 9 -29 17 -46 17 -38 0 -163 34 -214 58 -34 16 -38 21 -48 80 -11 61 -10 65 13 93 29 34 63 118 63 155 0 46 -125 270 -277 496 -81 121 -155 233 -164 250 -8 16 -20 33 -25 36 -6 4 -25 30 -44 57 -18 28 -38 55 -44 60 -7 6 -34 42 -61 80 -27 39 -59 81 -72 95 -12 14 -57 70 -100 125 -43 55 -87 110 -98 122 -11 12 -40 45 -65 74 -70 82 -233 245 -257 257 -34 19 -71 14 -119 -14 l-44 -26 -20 35 c-39 66 -108 73 -234 22 l-68 -27 -25 26 c-28 30 -25 41 15 49 46 9 83 46 119 121 31 64 34 77 28 130 -6 57 -7 59 -98 150 -124 123 -265 251 -362 327 -44 34 -89 72 -100 84 -11 11 -47 41 -80 65 -33 25 -104 80 -158 123 -54 42 -101 77 -105 77 -4 0 -22 14 -40 30 -18 17 -37 30 -42 30 -5 0 -23 14 -40 30 -35 34 -67 38 -126 15 -70 -28 -98 -47 -161 -108 -49 -48 -65 -59 -75 -49 -7 7 -20 12 -30 12 -10 0 -18 6 -18 14 0 8 -13 23 -30 33 -16 9 -30 21 -30 25 0 4 -7 8 -15 8 -8 0 -15 5 -15 10 0 6 -9 10 -20 10 -14 0 -20 7 -20 21 0 15 -5 19 -15 15 -10 -3 -18 2 -23 14 -4 10 -27 33 -52 50 -109 75 -353 232 -375 241 -28 12 -85 52 -85 61 0 5 -4 7 -9 3 -5 -3 -21 6 -35 20 -14 14 -30 25 -35 25 -6 0 -34 15 -63 34 -29 18 -73 43 -98 56 -25 12 -47 25 -50 29 -3 3 -21 14 -40 23 -19 10 -42 22 -50 27 -8 5 -44 24 -80 42 -36 17 -117 58 -180 90 -63 32 -120 59 -126 59 -6 0 -17 7 -24 15 -7 8 -23 15 -36 15 -13 0 -24 4 -24 8 0 5 -19 16 -42 27 -24 10 -63 27 -88 38 -25 11 -65 28 -90 39 -25 10 -63 27 -85 38 -22 10 -57 24 -77 30 -21 6 -40 15 -43 20 -3 5 -31 16 -63 25 -31 9 -64 23 -72 30 -16 14 -90 47 -90 40 0 -3 -24 5 -52 16 -29 11 -53 20 -53 18 0 -1 -15 7 -32 18 -25 15 -30 22 -21 31 7 7 16 12 22 12 20 0 46 34 46 61 0 33 -36 65 -83 74 -18 4 -61 15 -97 25 -36 11 -101 28 -145 39 -44 11 -116 29 -160 40 -177 44 -447 100 -635 130 -294 48 -400 63 -495 71 -55 5 -170 15 -255 24 -85 8 -288 20 -450 26 -162 6 -450 17 -640 24 -429 17 -979 4 -1230 -29 -31 -4 -70 -8 -195 -19 -16 -2 -31 -8 -33 -15 -3 -8 -9 -8 -24 0 -11 6 -34 8 -52 5 -17 -3 -49 -8 -71 -11 -22 -3 -51 -8 -63 -11 -13 -2 -42 -7 -64 -10 -47 -7 -73 -12 -73 -14 0 -1 -9 -3 -20 -4 -11 -2 -47 -8 -79 -15 -33 -6 -76 -11 -96 -11 -20 0 -40 -3 -44 -7 -4 -5 -15 -8 -24 -9 -10 0 -44 -6 -77 -14 -33 -7 -67 -15 -75 -16 -8 -2 -58 -12 -110 -24 -52 -11 -111 -23 -130 -26 -19 -3 -42 -9 -50 -14 -8 -4 -36 -11 -62 -14 -27 -4 -48 -10 -48 -14 0 -4 -14 -9 -30 -10 -17 -1 -49 -9 -70 -16 -22 -8 -40 -10 -40 -6 0 4 21 13 48 20 26 7 51 17 56 21 6 5 18 9 27 9 9 0 36 9 60 20 24 11 56 20 72 20 15 0 35 4 45 9 47 24 95 41 113 41 12 0 35 6 52 14 28 11 163 52 207 61 70 15 112 26 136 36 16 6 38 13 49 15 11 2 85 17 165 34 80 17 179 37 220 46 41 9 80 17 85 18 53 13 124 26 131 25 5 -1 16 0 24 4 8 3 35 8 60 11 25 2 72 10 105 16 77 14 100 18 155 25 25 3 59 8 76 11 18 3 41 1 52 -5 15 -8 21 -7 25 3 4 9 31 16 79 20 40 4 143 14 228 22 303 29 400 32 840 30 357 -3 493 -7 685 -24z m-725 -508 c91 -8 217 -19 280 -24 63 -5 159 -16 214 -25 54 -9 122 -18 150 -20 69 -5 338 -53 596 -107 147 -30 515 -123 644 -162 l40 -12 -45 -31 c-82 -57 -113 -98 -115 -150 l-2 -46 -98 -32 c-55 -18 -146 -47 -204 -65 -147 -46 -205 -74 -370 -183 -150 -100 -157 -102 -340 -141 -218 -46 -391 -92 -442 -118 -61 -31 -127 -98 -169 -170 -24 -41 -32 -47 -80 -57 -198 -43 -289 -66 -324 -80 -54 -22 -109 -73 -144 -135 -17 -28 -64 -85 -105 -126 l-75 -74 -78 20 -78 20 -37 109 c-48 146 -70 332 -61 535 6 144 6 145 39 190 43 60 93 107 135 128 58 29 87 124 59 197 -8 21 -6 30 10 47 33 36 43 81 30 141 -6 30 -20 63 -30 75 -19 20 -19 22 -3 59 12 28 17 68 17 148 l1 110 210 -3 c116 -1 284 -9 375 -18z m-809 1 c38 -20 48 -47 39 -115 -5 -42 -16 -69 -48 -114 -35 -49 -42 -67 -42 -106 0 -29 6 -52 15 -60 12 -10 11 -15 -11 -33 -42 -37 -58 -151 -29 -208 l16 -30 -65 -78 c-36 -43 -71 -91 -77 -107 -7 -16 -14 -110 -17 -214 -6 -252 15 -440 68 -600 67 -202 73 -211 160 -233 30 -8 55 -18 57 -23 2 -6 -18 -37 -44 -69 -27 -33 -65 -83 -86 -111 -44 -61 -80 -74 -203 -74 -79 0 -117 14 -212 77 -19 12 -70 30 -114 40 -95 20 -95 20 -149 170 -51 140 -79 334 -79 545 0 183 11 259 42 297 13 15 47 57 76 93 35 45 65 71 92 82 28 11 40 22 40 36 0 18 -6 20 -57 18 l-58 -3 -3 35 c-2 19 1 51 7 71 10 34 15 37 76 54 61 16 65 19 65 46 0 27 -3 29 -36 29 -80 0 -95 40 -41 111 53 69 57 82 57 172 0 66 -4 89 -17 105 -26 31 -168 104 -237 121 -32 9 -61 21 -63 28 -4 12 -1 13 282 38 99 8 194 17 210 19 17 1 103 4 193 5 130 1 169 -2 193 -14z m-2304 -11 c-3 -3 -12 -4 -19 -1 -8 3 -5 6 6 6 11 1 17 -2 13 -5z m-517 -495 c-19 -16 -48 -37 -65 -46 -16 -8 -50 -30 -75 -47 -67 -47 -233 -125 -335 -157 -22 -7 -49 -21 -60 -30 -11 -9 -43 -20 -71 -24 -40 -5 -59 -14 -84 -40 -27 -28 -38 -33 -61 -28 -16 3 -35 1 -41 -4 -7 -6 -49 -29 -93 -53 -118 -63 -262 -146 -330 -190 -33 -22 -89 -58 -125 -81 -36 -22 -96 -63 -135 -90 -38 -27 -92 -64 -120 -82 -27 -19 -107 -77 -176 -129 -150 -114 -150 -114 -214 -123 -55 -8 -72 -17 -125 -65 -34 -31 -151 -93 -522 -277 -49 -24 -30 2 43 58 179 138 239 182 309 231 41 28 77 54 80 58 3 3 79 55 170 116 172 114 176 117 229 149 18 11 58 36 89 56 31 19 106 64 166 99 97 57 113 63 156 61 34 -1 51 2 57 13 13 24 82 66 108 66 14 0 45 15 70 34 25 19 72 49 106 67 33 18 64 40 70 50 8 16 57 41 264 138 22 10 90 40 150 65 96 41 140 60 230 97 11 4 88 33 170 64 83 31 159 60 170 65 33 14 32 11 -5 -21z m2797 -71 c-3 -8 -6 -5 -6 6 -1 11 2 17 5 13 3 -3 4 -12 1 -19z m-2312 -112 l28 -24 -49 -7 c-122 -15 -160 -38 -198 -120 -31 -64 -33 -108 -7 -134 21 -21 80 -41 123 -41 53 0 57 -7 30 -60 -29 -59 -53 -67 -152 -51 -36 6 -86 11 -111 11 -45 0 -46 1 -58 41 l-12 41 -60 -4 c-57 -4 -63 -7 -117 -60 -78 -76 -88 -81 -166 -68 -80 13 -96 19 -96 35 0 8 19 16 47 20 56 8 99 29 186 90 74 51 94 77 103 133 5 31 19 52 60 93 39 38 54 61 54 80 0 36 20 40 160 33 64 -3 128 -1 145 5 47 15 60 13 90 -13z m285 9 c37 -10 110 -85 110 -112 0 -34 -13 -28 -33 16 -18 40 -65 71 -105 71 -11 0 -22 9 -25 20 -4 16 -1 20 11 16 9 -2 28 -8 42 -11z m-967 -113 c-4 -16 -13 -22 -32 -22 l-26 1 29 25 c32 28 38 28 29 -4z m885 -104 c-2 -6 -29 -25 -59 -41 l-54 -29 40 41 c36 38 82 56 73 29z m285 -149 c84 -43 92 -54 95 -117 1 -31 11 -74 21 -95 19 -38 19 -39 0 -72 -20 -33 -26 -36 -109 -50 -42 -8 -60 -20 -85 -59 -17 -26 -22 -28 -65 -23 -70 8 -94 24 -144 93 -58 81 -85 96 -125 67 l-28 -21 -17 20 c-17 20 -17 21 8 45 14 13 32 39 40 57 9 22 27 39 52 50 96 44 167 83 191 103 35 30 108 31 166 2z m-1713 -28 c0 -40 -73 -112 -155 -153 -28 -14 -32 -13 -61 7 l-32 22 52 30 c28 17 69 41 91 53 22 12 49 29 60 36 22 16 45 18 45 5z m3407 -103 c-2 -13 -4 -3 -4 22 0 25 2 35 4 23 2 -13 2 -33 0 -45z m0 -90 c-3 -7 -5 -2 -5 12 0 14 2 19 5 13 2 -7 2 -19 0 -25z m2520 -35 l86 -46 131 16 c277 35 297 34 316 -14 7 -16 36 -44 67 -65 31 -20 65 -48 77 -62 11 -14 29 -33 39 -43 18 -17 18 -18 0 -27 -17 -9 -128 -47 -263 -90 -89 -28 -297 -65 -325 -58 -13 3 -43 27 -67 52 -24 25 -60 55 -82 66 -26 13 -43 32 -55 58 -12 30 -23 41 -46 46 -48 10 -194 78 -195 91 0 15 190 123 218 123 8 0 52 -21 99 -47z m-5307 17 c0 -38 29 -78 87 -119 37 -27 67 -41 87 -41 17 0 76 20 131 45 55 25 103 45 107 45 21 0 104 -93 133 -150 41 -80 64 -103 138 -130 l58 -22 -33 -38 c-38 -44 -47 -46 -111 -24 -32 11 -53 26 -67 49 -21 34 -129 133 -167 153 -31 17 -100 15 -128 -4 -21 -14 -39 -14 -189 1 -128 13 -174 14 -201 5 -28 -9 -38 -8 -58 4 -13 9 -28 13 -33 9 -5 -5 -1 1 8 13 10 11 21 34 24 51 5 27 11 32 46 37 59 10 73 20 87 65 17 58 81 98 81 51z m-1008 -197 c69 -50 97 -123 66 -166 -10 -13 -29 -17 -81 -18 -58 -1 -73 3 -107 26 -21 15 -55 30 -75 35 -31 7 -41 4 -83 -25 -78 -55 -114 -72 -174 -79 -52 -7 -57 -6 -63 14 -4 12 -5 23 -3 24 1 2 50 27 107 57 57 30 119 69 137 88 27 26 48 36 102 46 37 8 78 18 92 24 14 5 27 10 29 10 2 1 26 -16 53 -36z m514 -5 c40 -29 52 -32 115 -32 l70 0 -33 -18 c-18 -9 -57 -26 -86 -38 -49 -19 -55 -19 -83 -5 -72 38 -99 77 -73 106 24 26 39 24 90 -13z m491 -94 c-3 -3 -12 -4 -19 -1 -8 3 -5 6 6 6 11 1 17 -2 13 -5z m9088 -66 c144 -103 289 -215 340 -262 28 -25 75 -65 105 -87 30 -23 76 -60 101 -83 25 -22 82 -72 127 -110 45 -39 100 -91 121 -116 37 -44 38 -47 25 -73 -10 -18 -23 -27 -40 -27 -13 0 -41 -7 -61 -15 l-36 -15 -73 72 c-41 40 -78 78 -84 83 -30 29 -120 161 -120 175 0 29 -56 96 -95 115 -28 13 -51 16 -87 12 -56 -7 -102 9 -93 31 3 10 0 12 -10 8 -9 -3 -15 0 -15 10 0 8 -8 18 -17 21 -10 4 -24 15 -31 25 -7 10 -19 18 -25 18 -7 0 -18 9 -25 20 -7 11 -16 20 -21 20 -5 0 -22 12 -38 28 -59 56 -128 112 -140 112 -24 0 -13 18 38 64 29 26 56 43 63 39 6 -4 47 -33 91 -65z m-717 3 c-4 -12 50 -61 68 -61 8 0 17 -7 20 -15 4 -8 10 -15 15 -15 6 0 15 -5 22 -10 7 -6 36 -28 66 -50 67 -49 77 -63 83 -124 3 -26 15 -61 27 -77 16 -21 21 -43 21 -85 0 -72 23 -111 91 -155 62 -40 169 -79 214 -79 l34 0 -24 -36 c-31 -46 -55 -124 -55 -178 0 -24 15 -77 36 -126 19 -47 36 -91 37 -99 2 -11 -28 -18 -119 -32 -137 -20 -274 -67 -316 -109 -14 -15 -31 -47 -37 -71 -34 -133 -29 -126 -96 -169 -58 -38 -123 -65 -133 -55 -2 2 5 19 16 37 11 18 26 52 33 75 7 25 20 45 30 48 20 7 34 40 30 70 -2 11 -13 40 -26 65 -13 25 -31 72 -40 103 -34 118 21 230 142 287 123 59 158 52 158 -32 0 -39 7 -65 28 -99 15 -25 27 -51 27 -57 0 -8 18 -12 45 -12 35 0 52 6 70 25 14 13 25 31 25 39 0 34 -40 118 -78 163 -43 52 -66 93 -76 135 -13 57 -81 43 -177 -35 -30 -25 -78 -57 -107 -72 l-52 -27 -72 22 c-88 26 -163 66 -189 98 -15 19 -19 41 -19 94 0 59 -3 72 -21 87 -24 19 -37 80 -38 171 -2 120 111 265 259 334 86 41 81 39 78 27z m-8208 -67 c80 -2 148 -4 152 -4 4 0 31 -28 59 -62 29 -35 62 -70 74 -78 17 -11 21 -20 14 -36 l-8 -22 -113 34 c-270 79 -352 110 -370 140 -24 42 -22 47 15 39 17 -4 97 -9 177 -11z m-503 -78 c-3 -8 -11 -34 -17 -58 -9 -34 -33 -65 -116 -149 l-104 -106 0 -50 c0 -40 6 -59 30 -91 l30 -41 -21 -53 c-26 -68 -34 -77 -94 -114 -161 -100 -231 -133 -302 -145 -89 -15 -128 -37 -148 -86 -9 -21 -32 -105 -52 -188 -20 -82 -43 -158 -52 -169 -9 -10 -37 -29 -63 -42 -40 -20 -47 -21 -52 -8 -4 10 4 24 20 37 63 49 71 174 12 192 -10 4 -18 12 -18 18 0 7 25 53 55 102 69 115 104 188 111 234 5 30 1 42 -25 75 -50 63 -45 78 73 196 87 88 106 112 111 145 9 50 34 101 122 250 29 49 30 50 84 54 30 2 116 -2 191 -9 122 -11 140 -11 160 3 30 21 72 22 65 3z m284 -206 l82 -26 -56 -62 c-45 -51 -56 -71 -62 -110 -7 -56 3 -88 41 -123 46 -41 63 -48 103 -37 65 18 207 97 277 156 38 32 81 65 96 75 27 17 28 16 39 -6 6 -12 27 -39 47 -59 33 -35 36 -45 62 -190 l28 -153 -19 -57 c-26 -78 -25 -89 19 -135 20 -22 52 -57 70 -77 18 -20 68 -54 111 -75 59 -30 81 -47 88 -68 40 -110 84 -264 81 -284 -5 -39 -83 -48 -438 -49 -352 0 -378 -4 -440 -63 -44 -41 -55 -78 -48 -163 3 -39 11 -61 28 -79 l23 -25 -257 0 c-313 0 -351 -10 -332 -85 6 -22 12 -25 54 -26 27 0 66 -9 92 -22 37 -18 46 -27 48 -54 3 -34 -39 -125 -102 -223 -40 -61 -42 -67 -22 -113 l13 -33 -41 -16 c-223 -88 -246 -102 -316 -200 -28 -40 -39 -48 -65 -48 -33 0 -411 -146 -440 -170 -20 -17 -113 -153 -116 -172 -2 -7 0 -23 5 -35 6 -18 -3 -35 -41 -82 -43 -54 -53 -61 -93 -66 -25 -3 -117 -29 -205 -57 -178 -57 -181 -59 -295 -206 -45 -58 -61 -72 -90 -77 -66 -12 -78 -22 -119 -102 -28 -56 -48 -83 -72 -97 -19 -11 -37 -24 -41 -30 -4 -6 -8 -51 -8 -100 0 -88 0 -90 -37 -135 -67 -81 -177 -193 -213 -216 -19 -12 -55 -33 -80 -47 -88 -49 -147 -86 -192 -119 -26 -19 -82 -59 -124 -89 -43 -30 -109 -84 -147 -119 -60 -55 -71 -62 -79 -47 -5 9 -28 29 -51 43 -37 24 -51 27 -117 26 -41 -1 -131 -2 -200 -2 -182 -1 -186 -2 -267 -76 -77 -70 -114 -86 -141 -62 -50 45 -311 75 -384 44 -20 -9 -117 -68 -215 -133 -98 -64 -201 -132 -229 -151 -28 -18 -59 -33 -68 -33 -19 0 -19 -3 26 170 17 63 36 138 43 165 32 125 138 452 205 635 75 204 100 269 123 320 8 19 57 130 107 245 171 388 320 672 574 1092 70 116 249 388 309 470 103 140 282 375 349 459 194 240 527 606 558 612 27 5 129 -58 166 -103 22 -27 46 -46 65 -49 16 -3 43 -9 60 -12 18 -3 50 -23 73 -44 l41 -37 133 -12 c143 -13 162 -17 162 -35 0 -6 -20 -45 -44 -86 -24 -41 -46 -91 -49 -111 -5 -33 -3 -37 29 -52 19 -9 34 -23 34 -30 0 -35 -23 -74 -54 -91 -31 -16 -33 -20 -26 -54 8 -47 26 -79 49 -92 15 -7 34 -2 88 25 38 19 78 45 90 57 14 16 34 76 61 183 60 238 52 225 162 245 36 6 73 13 83 16 13 4 17 -1 18 -23 0 -15 4 -37 8 -47 4 -12 0 -33 -11 -55 -22 -44 -23 -88 -1 -165 30 -108 114 -169 208 -152 65 12 166 68 219 120 51 51 52 52 80 176 34 149 46 191 57 206 5 6 33 15 61 18 53 7 86 20 150 59 21 12 81 47 134 77 103 59 153 107 186 180 53 119 62 180 35 257 l-14 41 60 59 c67 65 117 137 117 167 1 19 3 18 24 -8 18 -21 47 -36 107 -56z m8977 -87 l37 -36 -42 23 c-24 13 -43 30 -43 37 0 20 8 16 48 -24z m-1692 -187 c3 -8 -11 -45 -31 -81 -32 -57 -36 -70 -26 -91 8 -18 19 -24 41 -24 32 0 70 -30 70 -55 0 -10 -11 -15 -35 -15 -60 0 -112 -28 -163 -89 -44 -52 -50 -56 -94 -58 -56 -1 -104 -27 -117 -62 -13 -35 -24 -118 -23 -163 1 -29 -2 -36 -13 -32 -10 4 -15 0 -15 -12 0 -10 -14 -33 -32 -51 -28 -29 -32 -40 -38 -115 -9 -99 -41 -184 -73 -191 -12 -3 -43 -9 -69 -12 -27 -4 -83 -25 -125 -46 -92 -46 -143 -50 -227 -18 -40 16 -58 28 -62 44 -8 32 17 74 64 113 46 36 48 59 8 101 -17 19 -22 31 -16 46 5 11 9 36 9 56 1 57 19 72 87 73 32 0 64 5 69 11 6 5 29 33 53 62 53 65 87 77 176 65 46 -6 69 -5 75 2 14 19 32 131 25 163 -6 29 13 99 39 148 17 33 150 153 182 165 15 6 42 8 60 4 38 -7 68 7 107 48 29 31 84 39 94 14z m-10042 -35 c17 -19 17 -23 1 -86 -9 -36 -14 -73 -11 -83 4 -12 -24 -49 -90 -122 -258 -282 -485 -561 -728 -894 -59 -80 -308 -451 -363 -541 -529 -863 -921 -1824 -1128 -2770 -4 -20 -243 -187 -256 -179 -4 2 -2 23 3 46 5 24 11 52 12 64 2 11 6 27 11 34 4 7 9 29 11 49 4 56 10 85 21 106 10 19 26 90 28 125 1 8 7 29 14 45 7 17 15 45 17 62 5 37 25 116 47 183 18 58 40 131 43 149 1 7 12 36 23 65 11 28 22 69 24 91 5 41 47 178 66 211 5 11 13 36 16 57 3 21 14 46 23 55 16 16 82 202 82 230 0 6 6 12 13 12 8 0 14 7 14 15 0 15 46 129 134 332 27 61 49 116 49 121 0 5 6 15 14 21 7 6 16 25 20 42 3 17 13 37 21 45 8 9 15 24 15 35 0 10 3 19 8 19 4 0 15 22 25 50 10 27 24 55 31 63 8 8 16 23 18 33 2 10 5 21 8 24 3 3 16 29 29 58 14 28 27 52 31 52 4 0 13 18 20 40 8 23 19 44 26 48 8 4 15 16 18 27 9 44 19 64 33 69 8 3 12 10 9 15 -3 5 1 14 9 21 8 7 15 19 15 26 0 8 5 14 10 14 6 0 10 6 10 14 0 16 37 83 57 104 7 7 13 20 13 28 0 8 5 14 11 14 5 0 7 5 4 10 -3 6 1 10 9 10 9 0 16 9 16 20 0 11 5 20 10 20 6 0 10 7 10 15 0 9 9 25 20 37 11 12 20 28 20 35 0 7 5 13 10 13 6 0 10 7 10 15 0 8 4 15 8 15 5 0 15 12 22 28 8 15 29 50 47 78 18 28 33 54 33 58 0 4 9 16 20 28 11 12 20 28 20 35 0 7 5 13 10 13 6 0 10 7 10 15 0 8 4 15 9 15 5 0 13 10 17 22 3 12 17 32 30 45 13 13 24 28 24 32 0 4 11 21 25 37 14 16 25 32 25 36 0 4 6 13 13 20 7 7 20 25 30 41 19 29 37 51 130 153 31 35 83 103 114 151 83 129 153 225 185 253 15 14 28 31 28 38 0 7 6 12 14 12 7 0 25 17 38 38 14 20 43 56 64 79 22 23 53 59 69 79 17 20 49 56 73 79 23 24 42 48 42 54 0 6 4 11 10 11 13 0 70 57 64 63 -12 12 72 62 115 68 25 3 49 7 52 8 3 0 14 -8 23 -18z m12056 -178 c38 -78 76 -123 101 -123 28 0 30 -14 8 -57 -21 -42 -43 -58 -97 -68 -26 -5 -33 -3 -38 12 -8 24 -17 47 -49 117 -32 70 -30 124 6 162 12 13 25 24 29 24 3 0 21 -30 40 -67z m-1971 -289 c24 -30 29 -128 10 -181 -9 -26 -17 -32 -53 -37 -23 -4 -68 -20 -101 -36 -32 -16 -60 -28 -62 -26 -2 2 1 15 7 30 14 38 12 96 -4 127 -13 26 -13 27 24 33 27 4 50 19 84 53 25 27 46 51 46 56 0 17 30 5 49 -19z m2894 -34 c31 -45 117 -63 194 -41 32 9 35 7 115 -74 114 -116 123 -126 219 -244 310 -383 603 -804 735 -1058 l43 -82 -30 -37 c-41 -52 -52 -101 -44 -203 9 -102 21 -135 66 -179 46 -46 112 -78 211 -103 46 -12 90 -29 99 -38 8 -9 26 -41 39 -71 14 -30 35 -72 47 -92 13 -21 23 -43 23 -49 0 -6 11 -32 24 -58 14 -25 38 -80 54 -121 l30 -75 -56 -13 c-34 -7 -67 -23 -83 -38 l-27 -26 -56 37 c-34 22 -56 44 -56 55 0 10 -7 25 -15 34 -8 8 -15 22 -15 31 0 9 -11 31 -25 49 -14 18 -25 39 -25 45 0 7 -31 77 -69 154 -38 78 -72 153 -76 167 -4 14 -11 30 -16 36 -8 10 -86 158 -142 269 -11 22 -23 42 -27 45 -4 3 -17 24 -29 48 -12 23 -26 42 -32 42 -6 0 -8 4 -5 9 3 5 -1 15 -10 22 -8 7 -25 31 -36 53 -11 23 -24 43 -29 46 -5 3 -10 15 -12 27 -1 12 -8 27 -13 35 -6 7 -23 36 -39 63 -16 28 -35 56 -42 63 -7 7 -13 17 -13 22 0 5 -30 55 -67 111 -38 55 -73 109 -79 119 -11 19 -16 28 -89 125 -25 33 -45 65 -45 70 0 12 -68 85 -79 85 -5 0 -6 11 -4 24 4 18 0 26 -16 31 -12 4 -18 12 -14 21 3 8 -1 14 -11 14 -9 0 -16 6 -16 14 0 8 -7 16 -15 20 -8 3 -15 12 -15 21 0 8 -4 15 -10 15 -5 0 -10 6 -10 13 0 8 -17 32 -37 54 -21 23 -49 59 -63 82 -14 22 -31 41 -37 41 -7 0 -13 8 -13 18 0 11 -12 24 -26 30 -14 7 -22 16 -19 22 3 5 -4 14 -15 20 -11 6 -20 14 -20 18 0 5 -19 30 -42 57 -37 42 -66 74 -180 196 -10 11 -24 19 -30 19 -20 1 23 30 43 30 10 0 24 -9 32 -20z m-967 -85 c-3 -8 -12 -15 -21 -15 -14 0 -14 3 2 24 18 24 30 18 19 -9z m371 -7 c33 -49 64 -58 112 -34 16 9 46 16 66 16 33 0 46 -9 123 -88 113 -115 182 -190 182 -198 0 -6 50 -62 98 -109 12 -12 22 -28 22 -34 0 -6 7 -14 15 -17 8 -4 15 -13 15 -20 0 -8 7 -17 15 -20 8 -4 15 -11 15 -18 0 -6 9 -19 20 -28 10 -9 31 -35 46 -57 15 -23 31 -41 35 -41 5 0 9 -6 9 -14 0 -7 11 -25 25 -40 14 -15 25 -31 25 -37 0 -5 3 -9 8 -9 4 0 20 -20 35 -45 16 -25 33 -45 39 -45 5 0 6 -5 3 -10 -3 -6 1 -13 9 -16 9 -3 16 -10 16 -15 0 -10 10 -24 43 -60 9 -10 17 -22 17 -25 0 -4 56 -91 125 -195 69 -103 125 -191 125 -194 0 -3 11 -23 25 -43 14 -20 25 -44 25 -54 0 -9 6 -23 13 -30 7 -7 26 -36 41 -65 28 -51 28 -51 12 -101 -9 -27 -28 -60 -41 -72 -21 -20 -25 -32 -25 -84 1 -34 5 -81 9 -105 8 -37 6 -47 -10 -65 -33 -35 -42 -88 -25 -153 13 -49 24 -66 70 -109 l54 -52 -48 -51 c-27 -28 -51 -48 -53 -44 -3 4 -11 35 -18 68 -16 74 -70 132 -145 160 -35 12 -56 27 -69 49 -50 85 -54 97 -52 179 1 91 -13 145 -52 196 -36 46 -165 130 -347 226 -58 30 -199 133 -227 166 -18 20 -57 72 -87 114 -88 124 -116 152 -172 171 -62 20 -110 9 -165 -39 -49 -43 -73 -98 -73 -172 0 -81 22 -149 67 -203 39 -47 48 -59 95 -129 14 -22 53 -69 85 -103 32 -35 49 -60 38 -56 -11 5 -33 13 -50 19 -93 35 -249 189 -315 313 -74 139 -108 164 -225 164 -68 0 -112 -16 -158 -57 -20 -18 -41 -33 -47 -33 -5 0 -41 -20 -80 -45 l-71 -45 -78 20 c-96 24 -121 25 -214 4 -126 -29 -167 -70 -175 -175 -2 -38 -10 -73 -16 -78 -16 -13 -200 -105 -207 -104 -3 1 -40 11 -83 22 -66 17 -86 19 -129 10 -29 -7 -64 -18 -79 -25 -26 -13 -28 -19 -28 -71 0 -37 -7 -72 -20 -99 -19 -37 -31 -47 -128 -94 -59 -29 -115 -60 -126 -69 -16 -14 -75 -100 -139 -203 -12 -19 -17 -49 -17 -96 0 -68 0 -69 -35 -88 -19 -10 -35 -22 -35 -26 0 -5 -4 -8 -10 -8 -5 0 -10 5 -10 11 0 6 -16 35 -36 64 -50 76 -118 109 -209 103 l-65 -4 0 32 c0 32 -4 45 -34 115 -14 35 -14 38 16 100 52 110 67 164 74 278 l7 109 49 4 c53 6 104 43 114 84 5 20 14 22 91 26 53 3 108 -1 142 -9 34 -7 119 -13 215 -13 182 0 216 10 285 85 33 36 40 53 59 143 12 57 22 135 22 174 0 64 -5 82 -52 186 -52 113 -79 150 -148 204 l-35 27 46 -1 c57 -1 114 26 136 63 16 26 23 29 68 29 52 0 137 23 165 44 8 7 28 18 44 26 47 23 94 76 107 120 10 34 16 40 39 40 51 0 126 31 200 83 93 65 135 119 151 194 7 32 16 63 20 68 14 19 130 53 218 65 79 11 84 10 102 -9 32 -34 64 -36 132 -8 34 14 73 29 87 32 14 4 40 16 59 26 62 36 146 68 178 69 26 0 36 -7 60 -42z m-10902 2 c3 -5 1 -10 -4 -10 -6 0 -11 5 -11 10 0 6 2 10 4 10 3 0 8 -4 11 -10z m9485 -206 c-6 -14 -10 -38 -10 -53 0 -25 -5 -30 -44 -40 -32 -8 -56 -8 -95 2 -28 6 -51 14 -51 18 0 15 48 46 108 71 90 35 104 36 92 2z m-710 -116 l25 -20 -30 -25 c-96 -80 -105 -90 -105 -121 0 -18 10 -42 24 -59 22 -25 30 -28 83 -27 32 1 85 6 118 12 43 8 61 8 66 0 7 -10 89 -5 123 8 9 3 15 -5 18 -25 l4 -30 -80 6 c-56 3 -104 0 -156 -12 -121 -26 -149 -29 -204 -15 -83 20 -257 -3 -314 -40 -29 -19 -63 -31 -100 -35 -31 -3 -67 -10 -80 -16 -35 -14 -78 -11 -93 7 -11 14 -10 19 11 36 102 79 120 99 120 133 0 28 -6 37 -29 49 -54 28 -52 74 6 101 19 9 37 25 40 35 4 16 9 16 60 4 72 -17 135 -5 231 42 42 20 100 39 134 44 34 5 66 14 72 20 8 8 14 2 21 -21 6 -17 22 -40 35 -51z m600 -167 l55 -7 -46 -18 c-46 -17 -48 -17 -92 2 -64 28 -72 47 -16 37 24 -4 69 -10 99 -14z m-7204 -105 c-29 -38 -33 -71 -13 -101 28 -40 36 -80 21 -106 -15 -26 -18 -77 -6 -96 12 -20 60 -33 118 -33 41 0 54 -4 54 -15 0 -8 9 -42 21 -75 12 -36 17 -65 12 -74 -9 -17 -167 -136 -180 -136 -15 0 -45 72 -49 115 -9 107 -15 162 -19 182 -7 31 -57 46 -109 32 -67 -18 -98 -38 -163 -106 l-63 -65 -72 7 c-60 5 -77 11 -96 31 -22 25 -22 26 -5 55 10 16 84 98 164 182 125 130 145 155 138 174 -4 11 -11 23 -16 26 -4 3 -44 -12 -88 -33 -71 -34 -81 -37 -86 -22 -9 23 -54 64 -87 78 -22 10 28 13 262 13 l288 1 -26 -34z m-4952 -68 c-4 -7 -20 -32 -36 -55 -15 -23 -28 -44 -28 -48 0 -3 -11 -21 -25 -39 -14 -18 -25 -36 -25 -41 0 -4 -17 -30 -37 -58 -21 -28 -45 -63 -53 -77 -8 -15 -40 -69 -71 -121 -117 -198 -157 -272 -288 -534 -75 -149 -142 -284 -149 -300 -7 -17 -33 -77 -58 -135 -25 -58 -54 -123 -63 -145 -10 -22 -22 -51 -26 -65 -4 -14 -11 -29 -15 -35 -4 -5 -13 -28 -20 -50 -7 -22 -19 -47 -26 -56 -8 -9 -26 -56 -40 -105 -14 -49 -38 -111 -53 -139 -15 -27 -32 -68 -39 -90 -6 -22 -27 -85 -46 -140 -20 -55 -38 -120 -42 -145 -4 -25 -13 -61 -20 -80 -7 -19 -25 -74 -39 -123 -13 -48 -36 -126 -50 -175 -15 -48 -30 -105 -35 -127 -5 -22 -18 -76 -29 -120 -36 -148 -62 -269 -82 -378 -16 -87 -26 -118 -54 -160 -26 -41 -35 -66 -40 -117 -12 -123 -37 -222 -111 -441 -42 -126 -74 -236 -74 -259 0 -54 47 -236 74 -285 22 -40 22 -43 10 -195 -7 -85 -17 -175 -24 -200 -8 -30 -9 -86 -4 -172 l7 -127 -27 -7 c-14 -3 -43 -4 -63 -1 -21 3 -62 9 -90 13 -29 3 -53 12 -53 18 1 33 21 413 30 550 23 367 110 941 200 1321 59 248 112 453 129 498 6 16 13 40 16 55 6 36 133 422 180 547 88 238 269 670 314 752 6 10 38 74 72 143 107 218 208 403 342 630 86 145 277 439 370 570 103 145 189 260 194 260 2 0 1 -6 -3 -12z m11357 -100 c43 -27 62 -33 110 -33 37 0 59 -4 59 -11 0 -29 50 -67 162 -122 68 -33 131 -68 140 -79 9 -10 35 -60 58 -112 l43 -94 -17 -96 c-10 -53 -24 -103 -32 -111 -22 -23 -203 -26 -302 -6 -44 9 -117 16 -163 16 l-84 0 -24 53 c-14 28 -37 80 -53 114 -32 72 -65 98 -212 168 -112 54 -134 78 -120 133 8 33 14 38 64 54 67 20 144 22 227 4 81 -17 92 -8 75 65 -24 101 -14 108 69 57z m-7163 -467 l3 -62 -46 -20 c-48 -21 -65 -19 -65 9 0 10 -7 28 -16 40 -9 13 -13 29 -10 38 6 15 104 64 121 60 6 -1 11 -31 13 -65z m9611 -81 c22 -30 58 -80 80 -111 54 -76 183 -178 321 -251 235 -127 300 -174 300 -219 0 -7 -17 3 -37 23 -21 20 -58 44 -83 53 -138 51 -192 79 -206 107 -20 38 -56 60 -116 69 -41 7 -59 17 -99 56 -27 26 -75 84 -106 128 -31 44 -67 91 -79 105 -24 27 -45 105 -26 99 6 -2 29 -29 51 -59z m-9872 -125 l21 -55 -27 -6 c-168 -40 -302 -86 -341 -119 -18 -15 -124 -55 -145 -55 -14 0 51 106 81 130 11 10 371 158 385 160 3 0 15 -25 26 -55z m9368 -42 c62 -119 97 -167 179 -250 50 -51 87 -93 83 -93 -10 0 -154 97 -204 138 -38 30 -62 58 -140 165 l-22 29 27 24 c38 33 54 30 77 -13z m-173 -197 c18 -35 79 -108 140 -168 48 -48 64 -58 105 -63 58 -9 91 -28 103 -60 10 -27 64 -57 180 -100 99 -37 135 -64 147 -112 5 -21 7 -46 5 -55 -5 -27 -53 -22 -80 7 -61 64 -174 30 -139 -43 7 -16 12 -59 12 -104 -1 -73 -4 -81 -39 -133 -36 -51 -56 -68 -56 -46 0 6 5 13 10 16 6 3 10 23 10 44 0 41 -17 63 -63 80 -20 8 -27 17 -27 36 0 14 -6 40 -14 58 -29 68 -210 213 -306 245 -136 46 -300 199 -396 369 l-60 108 42 3 c24 2 66 -6 100 -17 82 -29 134 -27 196 8 l51 29 34 -40 c19 -23 39 -50 45 -62z m-2561 14 c35 -16 66 -20 156 -20 118 0 209 -15 217 -36 2 -6 1 -54 -4 -104 -7 -78 -15 -106 -51 -179 -56 -117 -63 -193 -25 -277 25 -54 27 -66 21 -139 -6 -85 -1 -101 42 -123 30 -17 147 -15 189 3 19 8 41 12 49 9 8 -4 30 -35 49 -70 l34 -64 -25 -20 c-45 -35 -108 -59 -202 -75 -161 -27 -241 -80 -241 -160 0 -22 8 -30 47 -47 37 -16 60 -19 115 -16 l69 5 -68 -44 c-90 -59 -108 -77 -134 -132 -11 -25 -31 -59 -43 -76 -35 -47 -49 -101 -55 -220 l-6 -111 -120 -115 c-116 -111 -122 -116 -188 -132 -91 -23 -108 -36 -156 -115 -22 -37 -69 -98 -105 -136 -84 -91 -133 -174 -142 -243 -6 -50 -10 -57 -63 -100 -78 -64 -98 -96 -120 -195 -12 -56 -30 -105 -50 -135 -74 -115 -83 -134 -88 -185 -6 -59 9 -106 54 -171 26 -37 26 -39 10 -73 -22 -46 -22 -57 9 -122 24 -51 26 -63 22 -166 -3 -90 -8 -119 -26 -153 -12 -24 -31 -79 -42 -124 -15 -66 -26 -88 -59 -124 -64 -70 -67 -130 -8 -198 l32 -38 0 -117 c0 -105 3 -123 26 -172 37 -78 75 -119 138 -147 30 -13 65 -33 78 -43 42 -33 199 -240 212 -278 7 -20 24 -75 38 -122 13 -47 32 -98 41 -113 24 -40 236 -210 389 -310 70 -47 169 -115 218 -152 90 -68 140 -95 171 -95 10 0 70 25 135 55 111 51 123 55 236 64 144 13 173 13 173 2 0 -18 -399 -201 -439 -201 -15 0 -36 7 -49 15 -12 9 -61 23 -108 31 -72 13 -112 13 -229 5 l-143 -11 -121 -56 -121 -56 -37 23 c-20 13 -73 50 -117 84 -45 33 -109 78 -143 100 -119 76 -222 150 -322 233 l-100 83 -31 102 c-43 141 -62 179 -141 282 -93 123 -137 164 -222 205 -72 35 -72 35 -104 110 -32 74 -33 77 -27 185 l5 110 -40 43 c-51 53 -52 78 -5 123 46 44 54 59 75 149 9 41 29 104 44 139 25 60 27 72 23 190 -3 110 -6 131 -26 163 l-23 37 20 36 c23 44 18 65 -33 149 -55 91 -50 121 38 250 34 49 47 83 65 160 24 103 30 112 144 208 23 18 31 38 42 95 15 78 52 138 144 236 26 27 63 74 83 105 57 89 59 90 135 110 80 21 89 28 251 184 56 54 102 106 103 116 0 9 1 62 3 117 2 105 2 106 76 244 40 73 44 77 139 140 231 154 224 148 272 249 65 134 65 139 12 238 -58 110 -87 127 -166 100 -32 -11 -73 -16 -107 -14 l-55 3 4 81 c3 72 0 89 -24 143 -36 79 -31 128 24 245 36 74 44 104 53 187 9 82 8 110 -6 170 -9 39 -16 84 -16 100 0 33 23 59 54 59 13 0 41 13 62 28 66 48 75 49 135 22z m3494 -200 c22 -21 53 -44 68 -52 26 -13 27 -16 12 -28 -14 -11 -21 -8 -53 22 -20 19 -61 52 -89 73 -29 22 -53 40 -53 41 0 1 17 -2 38 -8 20 -5 55 -27 77 -48z m-270 -74 c75 -32 245 -187 245 -224 0 -10 -16 -37 -36 -61 -31 -35 -42 -42 -68 -39 l-31 3 0 100 c0 121 -8 137 -98 195 -65 42 -69 49 -12 26z m571 -148 c17 -55 81 -74 128 -37 15 12 28 20 30 18 2 -2 15 -24 29 -49 l25 -45 -22 -40 c-25 -42 -28 -43 -103 -27 -41 9 -43 8 -43 -15 0 -38 25 -76 73 -111 48 -34 87 -99 87 -145 0 -21 -11 -33 -54 -61 -62 -40 -86 -69 -86 -108 0 -44 -24 -59 -83 -52 -29 3 -63 11 -77 18 -32 15 -67 78 -81 148 -7 36 -20 65 -35 79 -14 13 -24 34 -24 50 0 24 6 30 38 39 20 7 44 17 52 23 41 31 150 212 150 248 0 25 -16 56 -44 87 l-21 24 27 -13 c15 -6 30 -21 34 -31z m952 25 c-2 -10 102 -226 112 -233 4 -3 11 -21 15 -40 4 -19 20 -60 36 -90 16 -30 29 -64 29 -76 0 -11 9 -29 19 -38 11 -10 22 -28 25 -42 4 -13 11 -24 16 -24 6 0 10 -10 10 -21 0 -12 9 -40 19 -63 35 -74 73 -178 66 -184 -10 -10 -76 19 -107 47 -32 28 -62 38 -122 40 -40 1 -69 -20 -81 -60 -15 -45 -75 -29 -202 55 -27 18 -69 32 -122 41 -101 18 -121 28 -121 62 0 14 -14 50 -30 79 l-31 53 43 -24 c58 -32 164 -43 206 -21 29 15 40 37 56 106 3 17 22 34 54 52 27 15 57 39 66 53 34 53 11 156 -51 221 l-29 32 29 17 c15 9 33 28 39 41 7 15 20 24 35 24 12 0 22 -3 21 -7z m-2024 -504 c16 -8 27 -23 31 -43 4 -17 18 -48 32 -69 51 -80 12 -95 -109 -41 -46 20 -112 47 -147 61 -68 24 -101 47 -101 69 0 12 33 16 190 27 25 2 53 4 62 5 9 1 28 -3 42 -9z m-564 -105 c71 -16 94 -34 71 -57 -19 -19 -12 -71 14 -107 21 -28 25 -45 25 -101 0 -54 -5 -76 -30 -122 -32 -60 -47 -117 -30 -117 17 0 84 -52 120 -93 46 -53 60 -58 182 -68 107 -9 112 -10 187 -56 42 -26 111 -82 154 -125 70 -69 83 -78 125 -83 139 -18 248 -48 292 -79 61 -43 71 -46 109 -30 31 13 33 17 28 51 -2 21 -10 53 -18 71 -13 31 -12 37 15 88 16 31 35 58 43 61 7 3 28 -8 47 -25 33 -29 138 -62 196 -62 49 0 157 -35 191 -62 38 -31 87 -48 134 -48 63 1 175 72 175 111 0 37 13 34 205 -46 77 -32 102 -38 170 -39 61 -1 88 4 115 18 26 14 69 21 170 28 137 9 189 6 271 -14 54 -13 82 -7 133 27 20 14 45 25 56 25 19 0 20 0 59 -145 12 -44 31 -109 41 -145 11 -36 22 -81 25 -100 3 -19 15 -64 25 -100 23 -80 34 -160 23 -160 -5 0 -24 11 -43 25 -34 25 -57 30 -98 19 -37 -10 -37 -45 1 -120 19 -38 53 -116 76 -174 57 -143 145 -319 176 -353 19 -19 24 -34 20 -48 -4 -12 2 -85 14 -163 20 -144 61 -523 62 -586 0 -19 5 -147 11 -285 34 -780 -79 -1782 -283 -2530 -11 -39 -21 -82 -24 -95 -4 -23 -16 -64 -66 -235 -11 -38 -29 -95 -40 -125 -11 -30 -21 -64 -23 -75 -3 -11 -12 -40 -21 -65 -9 -25 -19 -56 -21 -70 -3 -13 -9 -29 -14 -35 -4 -5 -15 -32 -23 -60 -17 -54 -62 -177 -76 -210 -5 -11 -23 -56 -41 -100 -17 -44 -35 -89 -40 -100 -5 -11 -30 -69 -55 -130 -25 -60 -56 -132 -69 -160 -13 -27 -43 -90 -66 -140 -71 -153 -174 -353 -272 -529 -28 -50 -58 -104 -66 -121 -9 -16 -19 -32 -22 -35 -4 -3 -18 -25 -30 -50 -12 -25 -26 -47 -30 -50 -4 -3 -20 -28 -34 -57 -15 -28 -34 -57 -42 -64 -8 -6 -14 -15 -14 -20 0 -10 -203 -318 -279 -424 -28 -38 -73 -102 -100 -141 -28 -39 -56 -78 -63 -85 -7 -8 -40 -50 -72 -94 -33 -44 -67 -87 -76 -96 -9 -9 -52 -62 -95 -118 -44 -55 -82 -101 -86 -101 -3 0 -9 36 -13 81 -4 44 -17 108 -30 142 -33 88 -142 329 -251 558 l-94 195 -9 130 c-9 133 -9 129 35 289 9 33 49 132 88 220 81 180 88 205 106 361 14 127 7 183 -37 292 -23 59 -25 68 -13 114 17 73 6 151 -36 253 -21 50 -45 110 -55 135 -52 132 -131 323 -144 348 -14 27 -77 121 -269 405 l-67 98 14 37 c8 20 28 73 46 117 26 63 35 107 46 215 29 288 19 335 -91 434 -103 93 -130 100 -314 93 l-146 -6 -40 82 c-26 52 -60 102 -95 138 -49 49 -66 60 -130 79 -69 21 -89 22 -245 17 -177 -6 -218 -14 -271 -54 -17 -12 -34 -23 -37 -23 -3 0 -39 -15 -79 -34 -40 -18 -100 -46 -133 -60 -33 -15 -72 -34 -87 -42 -21 -11 -33 -12 -47 -4 -37 19 -175 40 -266 40 -195 -1 -284 -14 -370 -55 -127 -59 -112 -60 -197 4 -127 95 -191 139 -236 163 -47 25 -149 102 -245 185 -59 51 -61 54 -92 155 -43 142 -57 167 -159 296 -95 122 -185 203 -244 220 -31 10 -40 19 -56 58 -12 29 -18 63 -15 88 2 23 3 75 4 116 0 62 -4 80 -22 106 l-23 32 25 44 c13 24 33 79 44 123 10 44 30 103 43 130 25 54 24 25 19 477 -1 83 -15 134 -55 197 -14 22 -26 45 -26 51 0 6 18 36 39 68 56 82 81 133 81 163 0 14 7 48 15 76 13 44 25 59 78 101 70 55 91 91 102 170 8 58 56 132 134 207 23 22 56 64 73 93 31 55 41 62 120 82 53 14 101 51 260 206 125 121 138 149 136 295 0 56 4 94 13 111 8 14 28 52 46 85 29 54 43 67 149 139 150 101 223 168 254 233 13 28 27 51 30 51 4 0 25 -8 46 -17 25 -11 86 -20 164 -25 69 -5 156 -11 195 -14 109 -9 136 4 231 108 63 68 163 105 384 141 68 11 253 6 320 -9z m1627 -647 c15 -13 55 -31 88 -41 80 -24 112 -42 126 -68 12 -22 12 -22 -12 -5 -56 41 -130 68 -232 83 -59 9 -107 20 -107 24 0 8 61 27 92 29 9 1 29 -9 45 -22z m1881 -34 c-10 -2 -28 -2 -40 0 -13 2 -5 4 17 4 22 1 32 -1 23 -4z m75 -133 c38 -7 91 -10 117 -7 48 6 49 5 59 -26 13 -40 71 -266 71 -276 0 -4 -18 -13 -40 -20 -55 -16 -90 -65 -97 -134 -5 -51 -2 -63 45 -163 28 -60 69 -156 92 -214 23 -58 67 -152 98 -210 58 -106 70 -153 87 -310 3 -30 14 -134 25 -230 59 -545 59 -1185 -1 -1735 -29 -265 -28 -258 -50 -410 -100 -680 -282 -1356 -539 -2000 -60 -149 -59 -148 -171 -395 -112 -250 -261 -540 -267 -522 -1 5 6 25 17 43 12 19 21 40 21 48 0 8 7 19 16 25 8 6 16 18 17 27 2 8 23 64 49 125 93 222 135 333 137 361 1 6 8 18 16 27 9 8 15 17 15 18 -2 5 10 38 32 92 11 27 18 60 15 74 -3 17 3 36 18 56 12 17 25 40 28 51 10 39 50 171 64 215 8 25 17 59 20 75 3 17 13 50 23 75 11 25 21 61 24 80 3 20 12 52 20 72 9 20 18 51 20 70 2 18 10 47 16 63 12 31 36 129 70 292 10 50 23 108 29 130 5 21 15 72 22 113 6 41 15 80 19 85 5 6 10 30 13 55 3 25 12 77 20 115 9 39 18 97 22 130 3 33 13 105 21 160 9 55 19 147 24 205 5 58 16 170 25 248 17 161 30 508 30 802 0 433 -22 786 -75 1195 -10 83 -19 166 -18 185 1 35 -4 74 -22 165 -5 28 -15 88 -21 135 -14 106 -15 112 -22 130 -3 8 -10 35 -16 60 -10 43 -15 69 -27 135 -3 17 -9 34 -15 40 -5 5 -9 18 -9 30 0 34 -115 499 -137 555 -3 8 -5 21 -4 28 1 6 -3 12 -10 12 -6 0 -9 7 -5 15 3 8 1 15 -4 15 -6 0 -10 9 -10 21 0 15 5 19 18 16 9 -3 48 -11 85 -17z m-15568 -150 c26 -27 27 -31 15 -60 -18 -43 -14 -151 9 -282 11 -62 23 -153 26 -201 7 -87 7 -89 -40 -223 -26 -75 -54 -138 -62 -141 -26 -10 -76 21 -124 79 -58 70 -82 115 -97 183 -23 104 -25 142 -7 195 11 34 16 70 13 102 -5 44 -11 56 -59 104 -45 45 -59 54 -89 54 -19 -1 -46 -7 -60 -15 -47 -27 -83 -19 -131 29 l-45 44 66 4 c80 6 130 31 194 97 l49 50 101 -5 c56 -3 121 -1 146 4 66 14 64 15 95 -18z m-826 -71 c69 -11 122 -41 99 -56 -7 -4 -79 -8 -161 -9 l-147 0 -63 -61 c-48 -48 -73 -64 -109 -73 -26 -7 -52 -10 -58 -8 -6 2 33 33 87 69 244 164 229 158 352 138z m717 -1184 c6 -2 14 -16 17 -32 15 -74 97 -97 170 -47 l38 25 82 -26 c78 -25 87 -32 177 -119 103 -101 132 -120 210 -137 28 -6 63 -21 77 -33 l25 -22 -27 -32 c-15 -18 -36 -37 -47 -43 -21 -12 -334 -49 -408 -49 -86 0 -95 11 -125 153 -27 126 -54 148 -265 212 -69 21 -127 40 -129 41 -2 2 4 21 13 43 14 31 16 43 6 60 -11 22 -11 22 82 16 51 -4 98 -8 104 -10z m-438 -155 c-13 -38 -84 -100 -114 -100 -22 0 -44 40 -44 80 0 24 57 49 117 49 l52 1 -11 -30z m-514 -66 c25 -4 46 -12 46 -18 0 -6 -10 -30 -22 -53 l-22 -41 -150 -40 c-83 -22 -163 -42 -178 -44 -31 -4 -128 62 -128 88 0 24 44 62 86 74 22 6 50 17 64 25 27 15 215 21 304 9z m2038 -243 c49 -9 82 -9 124 -2 84 16 85 16 68 -16 -18 -36 -18 -57 1 -93 23 -44 67 -62 167 -68 54 -3 88 -9 89 -16 3 -25 -4 -51 -15 -58 -6 -4 -61 -8 -123 -8 -156 0 -209 -13 -253 -61 -62 -66 -142 -77 -171 -23 -13 26 -13 26 -109 19 -149 -11 -216 16 -187 76 18 37 73 59 144 59 40 0 67 5 76 15 18 18 31 96 22 136 -4 19 -2 36 6 45 14 17 40 16 161 -5z m-2536 -82 c13 -22 109 -59 154 -59 25 0 94 13 154 30 61 16 111 28 113 26 4 -4 -40 -110 -81 -192 -19 -39 -38 -83 -42 -98 l-6 -26 -36 31 c-98 87 -219 108 -368 65 -50 -15 -98 -24 -107 -20 -14 5 -17 21 -17 84 l0 78 85 22 c55 15 92 31 106 46 25 27 35 29 45 13z m-536 -141 c8 -3 39 -2 69 2 l54 7 -6 -120 c-6 -141 2 -157 77 -157 25 0 48 -4 51 -10 12 -19 137 -11 220 15 98 30 99 30 156 2 34 -16 74 -54 147 -138 55 -63 111 -123 125 -132 14 -9 67 -28 118 -42 52 -15 155 -46 229 -70 74 -24 147 -46 162 -49 24 -5 26 -9 19 -29 -5 -13 -22 -70 -37 -128 -23 -87 -28 -125 -29 -229 l0 -125 57 -85 c45 -68 69 -94 121 -127 76 -50 101 -52 174 -18 29 13 87 29 130 35 l77 10 35 -34 c50 -47 77 -59 121 -52 29 5 41 2 55 -14 28 -31 83 -62 96 -55 6 4 23 -4 37 -18 59 -54 116 -61 184 -23 65 36 90 78 82 138 -7 54 5 78 41 78 29 0 41 -16 48 -63 3 -21 26 -73 51 -115 34 -56 46 -87 47 -117 5 -421 6 -411 -46 -480 -16 -21 -53 -55 -82 -76 -60 -44 -78 -74 -88 -141 -6 -41 -11 -48 -45 -63 -61 -27 -86 -62 -115 -159 -15 -49 -45 -125 -67 -170 -38 -78 -39 -84 -35 -161 5 -85 26 -143 66 -179 l21 -19 -23 -26 c-72 -80 -107 -147 -107 -203 0 -40 48 -214 84 -303 11 -26 37 -57 77 -89 57 -47 65 -59 155 -239 60 -118 134 -247 198 -342 75 -110 145 -233 251 -443 80 -160 154 -297 164 -306 20 -18 264 -197 415 -304 59 -42 147 -106 195 -142 99 -75 84 -38 147 -360 41 -207 43 -249 64 -1015 l11 -420 31 -115 c16 -63 36 -137 44 -164 9 -34 11 -53 4 -60 -15 -15 -12 -47 6 -67 12 -13 13 -22 5 -38 -15 -28 -14 -73 4 -98 16 -22 251 -181 445 -301 251 -154 655 -370 918 -490 50 -24 92 -47 92 -53 0 -19 -63 -121 -84 -134 -11 -8 -43 -19 -71 -26 -27 -6 -55 -16 -61 -20 -7 -6 -58 14 -132 51 -67 33 -126 60 -132 60 -5 0 -10 5 -10 10 0 6 -9 10 -19 10 -11 0 -22 4 -25 9 -3 5 -45 28 -93 51 -49 24 -90 46 -93 50 -3 4 -21 15 -40 24 -59 28 -115 58 -120 65 -6 7 -73 45 -117 66 -18 8 -33 20 -33 25 0 6 -7 10 -15 10 -8 0 -15 3 -15 8 0 4 -15 14 -32 22 -18 7 -42 22 -52 32 -11 10 -24 18 -28 18 -5 0 -36 18 -68 40 -33 22 -68 43 -77 47 -10 4 -25 14 -33 22 -15 16 -35 29 -94 60 -17 9 -39 24 -50 34 -11 10 -41 30 -65 44 -25 14 -55 37 -67 50 -12 13 -26 23 -30 21 -5 -1 -29 11 -53 27 -24 17 -51 35 -60 40 -9 6 -34 26 -57 45 -23 19 -77 61 -120 92 -98 70 -154 123 -154 147 0 9 -11 53 -24 97 -22 75 -24 105 -35 494 -20 713 -28 856 -50 955 -11 50 -32 155 -47 234 -31 160 -37 171 -122 231 -61 43 -138 98 -271 195 -45 33 -113 81 -149 107 -66 47 -125 91 -181 135 -30 24 -34 31 -199 358 -58 116 -117 228 -131 250 -14 22 -30 48 -36 57 -5 9 -44 68 -87 130 -42 62 -119 199 -171 303 -79 158 -103 197 -142 233 -27 23 -52 42 -56 42 -13 0 -37 58 -74 179 -50 162 -48 171 39 275 69 80 71 103 17 161 -35 38 -40 50 -46 110 -7 59 -5 75 15 119 34 77 75 184 97 251 18 56 22 61 79 90 l59 30 10 65 c10 63 11 65 78 120 74 61 136 148 138 195 5 94 -5 463 -12 480 -5 11 -18 34 -29 50 -39 60 -50 85 -61 134 -13 64 -45 91 -105 91 -34 0 -48 -6 -74 -31 -29 -29 -31 -36 -28 -89 3 -63 -7 -82 -53 -106 -46 -24 -65 -17 -145 54 l-77 67 -79 1 -78 1 -146 146 c-80 81 -150 147 -154 147 -5 0 -22 12 -39 26 -29 24 -31 30 -31 99 l0 73 -56 66 c-34 40 -67 92 -84 133 -20 51 -33 70 -51 75 -95 26 -181 52 -224 68 -27 10 -86 27 -130 39 -184 49 -180 47 -267 146 -45 49 -95 107 -113 127 -43 48 -123 88 -176 88 l-42 0 7 39 c3 22 9 46 12 55 4 10 1 16 -9 16 -12 0 -15 13 -15 65 0 38 5 65 11 65 6 0 7 3 4 7 -4 3 -2 12 4 19 6 7 12 51 14 96 1 46 3 87 4 91 0 5 22 -7 49 -26 26 -18 54 -36 62 -39z m1354 -443 c43 -31 76 -59 73 -61 -2 -2 -43 9 -91 26 -48 16 -131 42 -184 57 l-97 28 55 6 c30 4 80 6 111 4 51 -3 64 -8 133 -60z m1662 -520 c16 -25 16 -27 -21 -80 -31 -46 -36 -60 -31 -88 5 -29 1 -39 -44 -86 l-49 -54 -63 55 c-74 65 -125 98 -153 98 -11 1 11 14 50 31 38 17 94 49 123 72 78 62 103 75 139 76 24 1 37 -6 49 -24z m249 -117 c17 -17 59 -45 95 -61 55 -25 86 -31 215 -42 122 -10 160 -17 205 -37 67 -31 110 -42 110 -28 0 22 92 49 243 71 176 25 211 19 135 -22 -54 -31 -63 -66 -22 -98 15 -11 32 -21 39 -21 7 0 35 -17 62 -39 34 -26 53 -51 62 -79 8 -23 22 -44 32 -47 9 -3 33 -19 53 -34 20 -16 66 -44 102 -62 64 -33 67 -37 109 -119 l43 -85 118 -66 c188 -103 179 -100 353 -110 86 -5 170 -11 186 -14 17 -3 55 -27 85 -53 31 -26 93 -76 138 -111 87 -69 105 -97 117 -186 4 -28 14 -80 22 -117 13 -63 19 -71 71 -117 l57 -50 0 -88 0 -88 65 -42 c106 -69 111 -74 122 -104 8 -24 16 -29 44 -29 18 0 44 5 58 11 22 10 40 4 148 -46 68 -31 157 -69 198 -83 l75 -27 10 -54 c12 -63 28 -76 97 -85 29 -4 86 -17 127 -28 62 -17 95 -20 186 -15 68 3 124 10 146 20 41 18 52 15 134 -46 28 -20 64 -47 81 -59 41 -30 150 -127 238 -210 68 -65 98 -81 191 -107 22 -6 46 -15 53 -19 16 -11 112 -287 112 -322 0 -14 -16 -54 -36 -90 -19 -36 -69 -141 -111 -235 -58 -131 -97 -200 -166 -300 -50 -71 -117 -168 -149 -214 l-58 -85 0 -215 c0 -219 -10 -311 -64 -576 -8 -38 -24 -119 -36 -180 -34 -173 -38 -185 -106 -286 -59 -89 -71 -101 -161 -161 -76 -50 -124 -74 -213 -103 -63 -21 -129 -49 -147 -62 -17 -13 -34 -23 -36 -23 -4 0 -162 -105 -291 -193 -89 -61 -101 -108 -70 -281 15 -85 14 -93 -6 -180 -22 -96 -116 -302 -157 -343 -16 -16 -34 -23 -62 -23 -49 0 -57 -13 -91 -140 -12 -47 -49 -151 -82 -232 -60 -145 -61 -147 -145 -232 -47 -48 -95 -89 -107 -92 -12 -3 -64 2 -116 11 -197 34 -210 32 -191 -28 15 -44 48 -87 66 -87 22 0 64 -43 71 -72 3 -16 2 -28 -2 -28 -14 0 -395 189 -534 265 -179 97 -442 253 -606 360 l-141 93 -7 83 c-6 71 -44 238 -85 378 -6 18 -15 259 -21 535 -12 555 -22 742 -44 837 -9 35 -30 138 -47 229 -17 91 -39 184 -49 206 -19 43 -54 75 -201 181 -45 32 -113 81 -152 110 -40 29 -101 73 -137 98 -199 141 -235 171 -260 219 -14 26 -79 154 -144 284 -65 131 -138 264 -161 297 -114 162 -170 256 -258 430 -87 174 -101 196 -166 260 -39 38 -71 75 -71 82 0 8 -11 46 -25 85 -14 39 -25 80 -25 91 0 22 30 68 77 118 28 29 35 46 40 92 8 78 -3 123 -41 165 -51 57 -52 77 -7 173 22 46 47 112 57 147 15 54 22 65 52 79 63 30 99 73 107 128 9 64 10 65 70 112 29 23 73 75 105 123 l55 84 3 227 c4 253 -6 358 -37 400 -12 16 -21 32 -21 37 0 5 23 12 52 15 58 7 98 35 183 125 62 66 85 107 85 152 0 23 11 51 33 82 17 27 34 48 37 48 3 0 19 -14 35 -32z m-488 -560 c-3 -8 -6 -5 -6 6 -1 11 2 17 5 13 3 -3 4 -12 1 -19z m11134 -123 c59 -21 91 -55 128 -134 59 -124 66 -135 101 -159 38 -25 42 -26 302 -6 l76 6 47 -43 c25 -23 50 -50 55 -60 6 -10 4 -79 -5 -177 -13 -151 -16 -166 -58 -269 -25 -59 -48 -123 -52 -141 -15 -72 -15 -72 240 -446 113 -166 119 -179 262 -535 l85 -214 -21 -42 c-11 -23 -21 -51 -21 -63 0 -11 19 -71 41 -133 41 -111 42 -115 36 -209 -7 -113 -25 -171 -105 -345 -33 -71 -75 -182 -93 -245 -31 -107 -34 -124 -31 -245 4 -226 9 -251 102 -441 139 -288 271 -593 280 -650 5 -30 10 -108 11 -175 l1 -120 -33 -42 c-68 -84 -442 -457 -459 -457 -12 0 -30 26 -58 83 l-41 82 -6 195 c-4 107 -10 218 -15 247 -9 50 -155 389 -263 609 -105 213 -105 214 -116 378 -11 158 -8 184 34 331 26 89 35 110 100 252 72 153 85 202 92 332 4 89 2 125 -10 156 -8 22 -27 73 -42 114 l-27 74 21 42 c12 23 21 52 21 64 0 13 -34 107 -75 209 -148 372 -166 409 -274 567 -224 328 -236 346 -235 384 0 20 22 89 48 153 26 64 49 139 51 165 31 330 32 327 -49 401 -68 63 -76 64 -264 52 -163 -11 -165 -11 -188 11 -13 12 -33 47 -44 76 -38 103 -117 203 -158 203 -28 0 0 17 106 64 57 26 122 59 145 73 65 42 272 58 358 28z m766 -647 c-3 -8 -6 -5 -6 6 -1 11 2 17 5 13 3 -3 4 -12 1 -19z m-12290 -710 c-3 -7 -5 -2 -5 12 0 14 2 19 5 13 2 -7 2 -19 0 -25z m12970 -3410 c-3 -7 -5 -2 -5 12 0 14 2 19 5 13 2 -7 2 -19 0 -25z m-11350 -510 c-3 -7 -5 -2 -5 12 0 14 2 19 5 13 2 -7 2 -19 0 -25z m-493 -918 c26 -19 67 -51 91 -72 24 -20 81 -61 127 -90 46 -30 110 -72 142 -94 32 -21 85 -55 116 -74 32 -19 66 -42 76 -51 11 -9 39 -28 64 -42 25 -15 54 -33 65 -40 11 -6 45 -27 75 -46 30 -19 84 -53 120 -76 121 -78 275 -164 549 -306 51 -27 89 -49 84 -49 -16 0 -331 143 -491 224 -292 146 -532 283 -812 462 -247 157 -285 185 -284 205 4 115 -4 110 78 49z"/> <path style="fill:#42977d;fill-opacity:0.81993568" id="path6" d="M14439 18656 c-2 -2 -60 -6 -129 -10 -69 -3 -136 -8 -150 -10 -14 -3 -52 -7 -85 -10 -33 -3 -73 -7 -90 -10 -16 -2 -61 -7 -100 -11 -38 -5 -77 -9 -85 -11 -8 -1 -35 -5 -60 -8 -69 -10 -163 -25 -187 -31 -58 -13 -71 -15 -113 -20 -25 -3 -61 -10 -80 -15 -20 -5 -56 -12 -80 -15 -25 -3 -59 -10 -77 -14 -17 -5 -34 -7 -37 -4 -3 3 -11 1 -18 -4 -7 -6 -20 -11 -28 -11 -23 -1 -192 -42 -215 -52 -11 -5 -36 -11 -55 -14 -19 -2 -51 -10 -70 -16 -19 -6 -42 -13 -50 -15 -69 -20 -97 -27 -110 -29 -8 -2 -26 -8 -40 -14 -14 -5 -81 -26 -150 -46 -69 -19 -138 -40 -155 -46 -63 -22 -272 -93 -315 -105 -25 -8 -69 -23 -97 -34 -29 -12 -53 -18 -53 -15 0 4 -6 2 -13 -4 -11 -10 -84 -39 -117 -46 -8 -2 -47 -17 -85 -34 -100 -43 -286 -122 -312 -133 -24 -9 -30 -25 -14 -31 9 -3 34 -126 46 -228 2 -25 7 -56 10 -70 4 -14 8 -35 11 -47 12 -63 34 -162 51 -228 8 -33 23 -98 34 -145 11 -47 24 -94 29 -105 14 -35 23 -60 25 -75 3 -25 46 -152 66 -198 10 -23 19 -49 19 -56 0 -8 26 -70 59 -138 61 -128 116 -249 116 -258 2 -11 65 -128 89 -163 14 -21 26 -42 26 -47 0 -5 12 -22 26 -39 14 -17 23 -31 19 -31 -5 0 43 -70 75 -107 5 -7 10 -16 10 -21 0 -5 16 -27 35 -49 19 -23 35 -46 35 -51 0 -6 3 -12 8 -14 4 -2 25 -25 47 -53 105 -130 300 -327 415 -418 47 -38 92 -74 100 -80 37 -30 180 -126 225 -152 28 -15 52 -31 55 -34 3 -3 25 -16 50 -28 25 -12 65 -33 90 -47 25 -14 72 -37 105 -51 33 -15 74 -33 90 -40 41 -18 90 -37 90 -34 0 1 19 -8 42 -20 23 -11 51 -21 62 -21 11 0 23 -5 26 -10 4 -6 11 -8 16 -5 5 4 9 1 9 -4 0 -6 6 -11 13 -11 13 0 121 -33 157 -47 23 -9 13 -7 215 -53 121 -27 130 -29 205 -40 81 -12 136 -20 164 -26 52 -10 190 -24 296 -30 63 -4 117 -8 119 -10 6 -6 -28 -31 -76 -56 -24 -12 -43 -25 -43 -30 0 -4 -9 -8 -20 -8 -11 0 -20 -4 -20 -8 0 -4 -30 -28 -67 -52 -38 -24 -74 -50 -81 -57 -7 -7 -16 -13 -20 -13 -4 0 -20 -11 -36 -25 -16 -14 -33 -25 -37 -25 -4 0 -14 -6 -21 -13 -7 -7 -35 -28 -63 -47 -27 -19 -52 -37 -55 -40 -3 -3 -32 -25 -65 -50 -53 -40 -282 -227 -311 -255 -6 -5 -39 -35 -73 -65 -35 -30 -90 -81 -123 -113 -56 -53 -59 -59 -43 -71 10 -7 25 -27 34 -44 37 -71 80 -140 184 -296 6 -10 24 -35 39 -55 15 -20 42 -56 60 -81 79 -111 275 -323 380 -411 28 -24 62 -53 74 -64 13 -11 48 -38 79 -60 31 -22 69 -50 83 -62 15 -13 30 -23 35 -23 10 0 91 -53 95 -62 2 -5 8 -8 13 -8 5 0 61 -25 124 -55 62 -30 116 -55 119 -55 2 0 17 -5 33 -12 15 -6 30 -12 33 -12 3 -1 19 -6 35 -12 112 -42 223 -69 380 -94 131 -21 448 -19 590 4 17 2 55 8 85 11 46 6 115 20 255 50 20 4 113 29 170 45 41 11 93 30 135 47 19 9 44 17 56 19 26 5 377 153 384 162 3 4 32 18 65 31 33 13 67 30 75 36 8 7 42 27 75 44 91 47 165 90 220 126 28 19 62 39 78 46 15 7 27 15 27 19 0 4 8 10 18 14 9 3 26 11 37 18 33 21 120 82 125 88 9 9 150 100 156 100 3 0 22 16 42 35 20 19 40 35 43 35 3 0 16 9 29 20 13 11 43 35 67 53 24 17 60 46 81 64 21 18 41 28 47 23 18 -15 108 -60 119 -60 7 0 18 -6 25 -12 6 -7 15 -13 19 -13 8 -1 111 -51 132 -65 8 -5 42 -22 75 -38 132 -64 143 -71 154 -104 16 -45 114 -213 156 -268 19 -25 40 -55 47 -67 6 -13 15 -23 19 -23 4 0 24 -23 45 -52 21 -28 58 -70 83 -92 24 -23 69 -65 100 -94 31 -29 76 -67 101 -85 25 -17 76 -56 114 -86 38 -31 83 -67 101 -81 18 -14 59 -47 92 -75 33 -27 93 -75 133 -105 40 -30 93 -73 119 -95 26 -23 64 -51 84 -64 20 -12 37 -27 37 -31 0 -5 28 -28 63 -51 34 -22 64 -45 65 -50 2 -6 34 -30 70 -55 63 -42 188 -136 222 -166 39 -33 99 -78 105 -78 4 0 27 -17 50 -37 23 -21 93 -74 156 -118 62 -44 123 -90 136 -102 13 -13 36 -30 51 -38 15 -9 53 -35 84 -58 32 -23 83 -60 114 -82 31 -22 80 -60 110 -83 56 -44 152 -112 279 -198 39 -26 88 -61 110 -79 22 -18 78 -57 125 -88 47 -31 96 -65 110 -75 14 -11 77 -54 140 -97 63 -42 117 -79 120 -82 8 -8 -111 7 -340 43 -643 99 -1164 231 -1425 361 -66 33 -154 75 -195 93 -41 18 -97 43 -125 57 -185 92 -610 235 -900 302 -511 119 -987 131 -1465 37 -1183 -234 -2306 -969 -3286 -2151 -186 -225 -514 -678 -514 -711 0 -11 77 -79 222 -197 812 -656 1624 -971 2428 -943 192 6 288 17 460 52 375 77 714 219 1125 473 50 30 95 60 100 67 6 6 37 29 70 52 33 22 96 67 139 101 43 34 81 60 83 58 1 -2 -6 -29 -16 -60 -26 -75 -104 -382 -135 -532 -56 -276 -120 -750 -110 -817 6 -36 6 -36 123 -77 256 -89 508 -149 740 -176 142 -17 398 -19 543 -5 626 61 1178 448 1575 1105 189 314 367 754 477 1186 47 184 126 557 126 596 0 12 4 24 8 27 14 9 644 154 867 201 121 25 238 50 260 56 22 5 112 23 199 39 l160 28 113 -64 c62 -35 119 -64 127 -64 7 0 19 -7 26 -15 7 -8 17 -15 22 -15 6 0 22 -8 36 -18 38 -26 111 -65 542 -290 274 -143 519 -262 537 -262 8 0 27 -8 41 -18 15 -10 61 -33 102 -51 41 -18 102 -46 135 -61 33 -16 85 -38 115 -50 30 -11 78 -32 105 -44 44 -20 90 -39 160 -66 11 -4 40 -17 65 -28 25 -12 83 -35 130 -53 47 -17 108 -39 135 -50 141 -52 224 -82 260 -93 22 -7 51 -17 65 -23 62 -27 222 -82 275 -96 22 -5 60 -18 85 -27 25 -10 70 -25 100 -34 30 -8 84 -25 120 -36 118 -39 300 -92 485 -143 98 -27 140 -38 345 -87 41 -10 116 -28 165 -41 50 -12 110 -25 135 -29 54 -9 181 -35 272 -57 36 -8 92 -18 125 -22 32 -4 96 -15 143 -24 47 -9 117 -21 155 -27 475 -71 752 -101 1240 -132 260 -17 1037 -17 1315 0 118 7 253 15 299 18 46 2 87 6 91 9 3 2 81 11 171 20 90 8 200 22 244 30 44 9 103 17 130 20 28 2 86 11 130 20 44 9 109 20 145 25 36 4 99 16 140 24 41 9 100 21 130 27 30 6 69 14 86 20 17 5 39 9 49 9 21 0 214 43 290 65 28 8 66 17 85 20 19 4 67 15 105 25 66 18 117 31 258 66 32 8 67 19 78 24 10 6 38 14 61 19 24 5 57 14 73 20 17 6 104 34 195 61 91 28 184 60 208 70 23 11 50 20 60 20 9 0 34 9 55 20 20 11 47 20 59 20 13 0 32 7 42 15 11 8 27 15 35 15 18 0 253 84 338 122 24 10 46 18 51 18 5 0 27 9 50 20 22 11 46 20 51 20 6 0 34 11 63 24 29 13 82 36 118 51 36 15 90 39 120 52 30 14 75 33 100 43 25 10 59 25 75 34 17 9 36 16 43 16 11 0 88 34 267 118 33 16 89 42 125 59 126 59 155 73 180 87 14 8 72 37 130 65 58 28 121 59 140 70 19 11 67 35 105 54 39 19 113 58 165 85 52 28 127 67 165 86 39 20 77 41 85 46 8 6 26 15 40 20 14 6 48 24 75 40 28 16 85 47 128 69 43 22 92 50 108 62 16 11 58 36 92 53 34 18 103 57 152 86 50 29 124 70 165 92 41 23 95 54 119 70 24 16 70 42 102 59 33 16 85 46 117 66 31 21 73 46 92 57 19 10 61 36 93 57 32 22 61 39 64 39 3 0 25 14 50 30 24 17 46 30 49 30 2 0 31 18 63 40 32 22 61 40 65 40 4 0 19 8 34 19 32 22 158 102 183 116 10 6 50 30 90 55 39 25 90 56 113 69 22 13 91 56 151 96 61 39 152 98 203 131 52 32 149 95 218 139 68 44 181 116 250 160 69 44 176 113 237 154 62 40 126 81 142 90 32 17 40 23 176 110 48 31 110 70 139 86 28 17 64 40 79 51 14 12 56 39 91 60 36 20 79 48 96 61 17 13 34 23 38 23 4 0 22 11 40 25 18 14 36 25 41 25 4 0 24 13 44 28 20 15 49 34 66 42 16 8 57 34 90 56 33 23 83 53 110 68 28 15 67 41 87 57 38 30 148 94 181 105 9 4 17 9 17 13 0 4 31 25 70 47 38 21 70 42 70 47 0 4 4 7 9 7 9 0 126 69 276 161 75 46 165 99 215 126 24 14 56 32 70 42 14 9 50 30 80 46 30 15 57 31 60 34 3 3 23 15 45 26 22 11 105 57 184 103 79 45 148 82 152 82 4 0 14 6 21 13 7 6 40 26 73 43 138 71 190 98 195 103 3 4 34 19 70 36 36 16 72 34 80 40 17 13 368 184 440 214 14 6 32 15 40 20 8 6 51 26 95 46 44 21 107 50 140 65 33 15 114 51 180 80 66 29 125 56 130 60 6 5 33 16 60 25 28 10 70 27 95 39 25 13 70 31 100 41 30 10 66 24 80 31 34 18 228 94 240 94 6 0 29 9 53 19 53 25 217 88 277 107 25 8 54 18 65 24 11 5 74 27 140 49 66 22 158 53 205 70 47 17 92 31 100 31 8 0 27 6 41 14 14 7 50 19 80 26 30 7 70 20 89 28 19 9 42 17 50 18 27 5 94 26 126 39 17 8 68 21 113 31 44 10 81 21 81 25 0 4 19 10 43 14 47 7 102 22 132 35 20 9 209 58 335 87 36 8 94 23 130 33 36 10 105 26 154 35 49 9 96 20 105 25 9 4 72 18 141 30 69 12 134 26 145 31 11 4 47 13 80 18 167 28 196 34 201 42 3 5 22 9 42 9 20 0 80 10 132 21 52 11 126 24 165 30 38 5 87 15 110 20 22 6 56 13 75 15 19 3 118 18 220 34 102 16 211 32 243 36 31 3 60 10 63 15 3 5 9 7 13 5 4 -3 151 13 327 35 175 22 373 42 439 46 66 3 125 9 130 13 9 7 191 22 426 35 53 3 121 10 151 15 30 6 165 15 299 20 134 5 321 14 414 20 405 25 579 31 1260 39 718 9 1026 8 1605 -3 168 -4 478 -9 690 -12 211 -3 387 -7 391 -10 3 -2 143 -6 310 -9 167 -3 448 -10 624 -15 954 -30 1493 -43 2345 -60 283 -5 630 -12 770 -15 140 -3 482 -10 760 -15 278 -5 587 -12 688 -16 l182 -6 0 650 0 650 -162 6 c-90 3 -255 8 -368 11 -113 3 -497 15 -855 25 -357 11 -969 29 -1360 40 -771 22 -934 27 -1910 66 -363 15 -653 30 -656 35 -3 6 -169 14 -380 19 -206 5 -547 16 -759 24 -888 34 -2877 30 -3575 -8 -532 -29 -640 -36 -675 -45 -19 -5 -91 -12 -160 -15 -69 -3 -208 -15 -309 -26 -101 -11 -207 -20 -235 -20 -29 0 -77 -6 -107 -14 -30 -8 -95 -17 -144 -21 -50 -3 -153 -15 -230 -25 -77 -11 -158 -22 -180 -24 -113 -14 -760 -120 -835 -137 -25 -6 -63 -14 -85 -19 -22 -5 -73 -14 -112 -20 -40 -7 -75 -15 -78 -20 -3 -4 -29 -11 -58 -14 -28 -4 -90 -16 -137 -26 -125 -29 -434 -105 -520 -128 -41 -11 -92 -23 -114 -27 -21 -3 -52 -12 -70 -19 -17 -8 -76 -23 -131 -35 -55 -12 -113 -27 -130 -32 -16 -6 -61 -19 -100 -29 -38 -10 -85 -23 -102 -28 -18 -6 -33 -8 -33 -5 0 3 -6 1 -13 -5 -7 -6 -48 -20 -91 -31 -43 -11 -84 -25 -90 -30 -6 -5 -35 -14 -65 -20 -30 -6 -68 -17 -85 -25 -17 -7 -60 -22 -96 -34 -36 -11 -105 -35 -155 -53 -49 -18 -126 -45 -170 -61 -44 -16 -108 -38 -142 -49 -34 -11 -65 -24 -68 -29 -3 -6 -13 -10 -21 -10 -14 0 -161 -55 -239 -90 -22 -9 -58 -23 -80 -30 -22 -7 -56 -21 -75 -31 -19 -11 -38 -19 -42 -19 -8 0 -160 -63 -256 -106 -29 -13 -55 -24 -58 -24 -8 0 -189 -79 -329 -144 -189 -88 -535 -259 -665 -328 -30 -16 -117 -62 -193 -101 -75 -40 -162 -85 -191 -102 -30 -16 -82 -45 -117 -64 -35 -19 -91 -50 -124 -71 -34 -20 -70 -40 -80 -44 -11 -4 -64 -34 -117 -67 -53 -32 -99 -59 -102 -59 -3 0 -45 -26 -93 -57 -49 -32 -100 -65 -115 -73 -14 -8 -58 -35 -97 -60 -39 -25 -90 -56 -114 -70 -24 -14 -76 -46 -115 -72 -40 -27 -75 -48 -78 -48 -3 0 -24 -13 -47 -29 -61 -42 -220 -145 -232 -150 -5 -2 -68 -43 -140 -91 -71 -48 -177 -118 -235 -155 -58 -38 -107 -72 -110 -75 -3 -3 -27 -19 -55 -35 -41 -23 -132 -85 -180 -122 -6 -4 -26 -17 -45 -27 -19 -11 -66 -42 -105 -69 -87 -61 -202 -139 -224 -152 -14 -8 -172 -115 -240 -161 -9 -6 -68 -46 -131 -88 -63 -42 -151 -101 -195 -132 -44 -30 -98 -67 -120 -81 -22 -14 -58 -40 -80 -58 -22 -17 -45 -34 -51 -36 -5 -2 -104 -67 -218 -144 -114 -77 -222 -148 -239 -158 -18 -11 -61 -40 -97 -65 -36 -26 -107 -74 -158 -107 -51 -33 -124 -82 -162 -110 -38 -27 -92 -63 -120 -80 -29 -16 -80 -50 -115 -75 -35 -25 -94 -63 -130 -85 -37 -22 -100 -64 -141 -92 -42 -29 -78 -53 -80 -53 -6 0 -31 -16 -214 -135 -52 -34 -102 -65 -110 -69 -8 -3 -35 -20 -60 -36 -25 -16 -55 -34 -68 -40 -12 -5 -28 -15 -35 -21 -6 -5 -34 -24 -62 -40 -27 -16 -57 -34 -65 -39 -8 -6 -53 -33 -100 -60 -47 -27 -118 -69 -158 -92 -40 -24 -97 -58 -125 -77 -48 -31 -75 -47 -177 -104 -19 -11 -46 -27 -60 -37 -25 -17 -99 -58 -235 -130 -120 -64 -197 -105 -300 -162 -55 -30 -136 -74 -180 -98 -102 -55 -631 -320 -640 -320 -3 0 -62 -27 -130 -60 -68 -33 -126 -60 -129 -60 -5 0 -61 -25 -201 -90 -22 -10 -62 -27 -90 -38 -27 -11 -93 -38 -145 -60 -289 -121 -895 -337 -1100 -392 -25 -6 -58 -17 -75 -24 -16 -7 -57 -20 -90 -28 -33 -9 -85 -23 -115 -33 -30 -9 -80 -22 -110 -29 -30 -7 -89 -22 -130 -34 -134 -36 -214 -55 -265 -62 -27 -4 -79 -14 -115 -23 -36 -9 -87 -20 -115 -25 -27 -5 -90 -17 -140 -26 -238 -45 -303 -56 -340 -56 -22 0 -86 -9 -143 -20 -56 -11 -129 -20 -160 -20 -32 0 -109 -7 -172 -15 -331 -42 -1210 -45 -1700 -6 -284 22 -562 53 -710 78 -47 8 -148 23 -225 33 -77 11 -194 31 -260 45 -66 14 -142 30 -170 34 -108 20 -255 52 -365 80 -104 27 -162 42 -330 87 -30 9 -95 26 -145 39 -136 35 -255 71 -415 124 -80 27 -194 65 -255 84 -115 37 -222 74 -365 127 -47 17 -103 38 -125 45 -22 7 -92 34 -155 60 -63 26 -135 55 -160 65 -25 9 -61 24 -80 33 -19 9 -99 43 -177 76 -78 33 -208 90 -290 126 -81 37 -179 80 -218 97 -38 18 -164 80 -280 139 -115 58 -239 121 -275 140 -36 18 -114 61 -175 94 -60 34 -146 81 -190 105 -205 110 -333 182 -390 220 -22 15 -69 41 -104 59 -35 18 -78 43 -95 56 -29 21 -176 109 -237 142 -15 7 -32 20 -39 28 -7 8 -16 15 -21 15 -8 0 -110 60 -119 70 -3 3 -27 19 -55 34 -27 16 -95 58 -150 94 -55 36 -116 75 -135 87 -19 12 -93 60 -165 107 -71 47 -148 95 -170 108 -22 13 -56 37 -75 53 -19 15 -105 75 -190 133 -85 57 -173 116 -194 132 -22 15 -49 34 -62 42 -103 69 -199 137 -249 178 -33 26 -89 68 -124 92 -35 25 -93 66 -130 92 -36 26 -84 60 -106 75 -22 16 -78 57 -124 93 -46 36 -95 74 -110 84 -14 11 -68 52 -119 90 -51 39 -107 81 -125 93 -18 13 -38 28 -46 35 -8 7 -33 27 -56 43 -35 25 -272 208 -426 330 -21 17 -84 65 -141 109 -57 43 -116 91 -133 106 -16 15 -46 38 -66 51 -20 13 -77 62 -128 109 -112 102 -591 580 -713 711 -130 140 -210 228 -238 262 -14 17 -43 50 -65 72 -22 22 -56 61 -75 85 -19 25 -42 52 -51 60 -9 8 -61 71 -115 140 -54 69 -101 127 -105 130 -3 3 -19 25 -36 50 -17 25 -40 56 -52 69 -12 13 -21 27 -21 30 0 3 -14 22 -31 41 -16 19 -37 49 -46 65 -9 17 -29 46 -44 66 -16 20 -29 40 -29 43 0 6 -38 64 -50 76 -14 14 -94 158 -96 174 -1 6 -20 49 -42 96 -22 47 -56 123 -77 170 -20 47 -42 88 -48 92 -7 4 -7 8 -2 8 7 0 7 3 0 8 -5 4 -28 45 -50 92 -22 47 -43 87 -47 90 -4 3 -16 26 -27 52 -12 25 -27 51 -35 57 -8 7 -17 22 -20 35 -5 22 -41 88 -78 144 -10 15 -21 34 -25 42 -4 8 -35 57 -70 109 -35 51 -63 98 -63 102 0 5 -4 9 -10 9 -5 0 -10 5 -10 10 0 6 -8 18 -17 29 -20 21 -58 68 -102 126 -74 99 -129 166 -171 211 -91 96 -287 290 -338 334 -28 25 -62 54 -75 65 -13 11 -36 29 -52 40 -15 11 -42 31 -59 45 -57 47 -100 76 -241 167 -117 74 -327 195 -345 198 -3 1 -40 18 -82 38 -42 20 -81 37 -86 37 -5 0 -15 7 -22 15 -7 8 -16 12 -20 10 -5 -3 -25 4 -45 15 -19 11 -40 20 -46 20 -5 0 -31 10 -57 22 -26 12 -51 23 -57 24 -5 2 -55 19 -110 39 -55 20 -105 37 -112 39 -7 1 -16 5 -19 9 -4 4 -18 7 -30 7 -13 0 -25 4 -28 8 -3 5 -31 15 -63 22 -32 7 -62 16 -68 20 -10 7 -39 15 -100 26 -16 3 -66 15 -110 26 -44 11 -96 22 -115 24 -19 3 -51 9 -71 14 -44 12 -134 30 -174 35 -25 3 -243 34 -358 50 -40 6 -279 24 -422 31 -218 13 -626 7 -875 -11 -106 -8 -212 -16 -255 -21 -39 -4 -50 -6 -150 -18 -27 -4 -68 -8 -90 -11 -100 -11 -149 -19 -285 -41 -80 -13 -154 -25 -165 -28 -11 -2 -49 -9 -85 -15 -36 -6 -81 -15 -100 -21 -19 -5 -42 -10 -50 -10 -28 1 11 17 60 25 25 4 50 10 55 13 6 4 21 8 35 10 14 1 32 5 40 9 8 3 26 7 40 9 14 1 66 12 115 23 158 35 237 50 340 66 55 8 111 17 125 20 14 3 66 10 115 15 50 6 110 13 135 16 25 3 61 7 80 9 19 2 49 6 65 9 43 8 124 15 255 21 63 4 153 9 200 12 187 11 693 4 762 -11 13 -3 64 -8 113 -11 50 -3 144 -12 210 -21 66 -9 134 -18 150 -20 78 -9 231 -36 335 -59 63 -14 124 -28 135 -30 121 -26 375 -101 550 -162 93 -33 119 -43 232 -94 23 -11 45 -19 49 -19 9 0 158 -71 164 -79 3 -3 11 -7 19 -9 47 -10 372 -201 466 -274 6 -4 39 -29 75 -55 36 -26 70 -52 77 -58 6 -5 26 -21 44 -35 70 -53 323 -298 389 -376 163 -192 222 -264 265 -324 22 -30 45 -61 52 -68 7 -7 13 -17 13 -22 0 -5 11 -22 25 -37 35 -40 38 -44 65 -88 13 -22 26 -42 29 -45 10 -9 51 -69 51 -75 0 -3 15 -29 33 -58 37 -59 48 -77 77 -127 12 -19 31 -53 45 -75 33 -57 68 -129 67 -137 -1 -5 1 -8 6 -8 8 0 27 -35 58 -105 10 -22 21 -42 24 -45 6 -5 51 -97 78 -163 13 -31 38 -32 35 -1 -18 140 -37 258 -60 369 -9 44 -17 91 -19 105 -1 14 -4 32 -7 40 -8 24 -59 223 -62 245 -2 11 -11 40 -20 65 -9 25 -20 63 -25 85 -12 52 -75 232 -88 248 -5 7 -12 26 -16 42 -4 17 -28 73 -53 124 -25 52 -46 100 -47 105 -4 20 -40 86 -46 86 -4 0 -7 6 -7 13 0 14 -110 206 -130 225 -7 7 -13 19 -13 25 0 7 -10 24 -22 37 -13 14 -47 61 -77 105 -30 44 -57 82 -60 85 -4 3 -31 34 -61 70 -104 124 -321 332 -421 402 -13 10 -51 37 -84 60 -84 60 -127 88 -225 143 -94 53 -259 138 -275 141 -5 1 -32 12 -60 24 -27 12 -59 25 -70 30 -42 18 -291 99 -320 104 -16 3 -82 17 -145 31 -174 37 -349 66 -495 80 -38 4 -83 9 -100 11 -42 6 -681 15 -686 10z m-2679 -676 c0 -5 -7 -10 -16 -10 -8 0 -12 5 -9 10 3 6 10 10 16 10 5 0 9 -4 9 -10z m-43 -16 c-3 -3 -12 -4 -19 -1 -8 3 -5 6 6 6 11 1 17 -2 13 -5z m-48 -8 c-2 -2 -17 -6 -34 -10 -22 -5 -26 -4 -15 4 14 9 59 15 49 6z m5985 -2998 c37 -40 93 -100 124 -133 31 -33 95 -103 142 -154 105 -118 165 -183 209 -230 64 -68 161 -184 161 -193 0 -4 7 -8 15 -8 8 0 15 -3 15 -8 0 -4 10 -19 23 -32 12 -14 58 -66 102 -115 44 -50 82 -92 85 -95 3 -3 30 -33 59 -68 50 -57 53 -64 39 -80 -46 -52 -51 -80 -49 -254 1 -93 0 -168 -2 -168 -18 0 -178 136 -292 247 -77 76 -165 161 -196 189 -72 66 -268 224 -278 224 -5 0 -19 10 -33 23 -41 38 -256 170 -358 219 -145 70 -207 98 -222 98 -8 0 -18 4 -24 10 -15 15 -358 118 -428 129 -34 5 -92 14 -131 20 -219 34 -684 32 -905 -4 -14 -2 -38 -6 -55 -9 -81 -12 -164 -27 -197 -35 -21 -5 -38 -7 -38 -4 0 2 -6 1 -12 -3 -7 -5 -19 -9 -28 -10 -8 -2 -51 -12 -95 -23 -44 -11 -100 -25 -125 -31 -25 -6 -58 -16 -74 -22 -17 -7 -37 -13 -45 -14 -17 -2 -68 -20 -118 -41 -17 -7 -36 -13 -43 -13 -11 0 -76 -25 -157 -61 -24 -11 -49 -19 -56 -19 -14 0 -172 -68 -252 -108 -22 -11 -103 -51 -180 -88 -77 -38 -152 -77 -167 -88 -14 -10 -31 -17 -38 -14 -12 4 121 88 140 88 5 0 10 4 10 10 0 5 18 15 40 21 22 7 40 15 40 19 0 3 35 23 78 44 42 21 84 42 92 47 8 5 35 19 60 30 25 12 91 43 147 70 56 27 105 49 109 49 3 0 20 6 37 14 54 23 189 73 257 95 36 12 79 26 95 32 38 13 45 15 133 39 39 10 132 24 205 30 134 11 178 15 232 25 17 2 57 7 90 10 54 5 77 8 150 20 18 3 148 22 200 29 11 2 44 9 74 16 51 12 205 10 331 -5 25 -2 74 -7 110 -11 74 -6 115 -11 115 -14 0 -2 9 -4 20 -5 11 -1 49 -10 85 -20 36 -9 72 -18 80 -20 37 -8 246 -79 258 -88 6 -5 12 -7 12 -3 0 4 19 -4 43 -16 23 -12 48 -23 56 -24 8 -2 17 -7 20 -11 3 -5 31 -20 61 -32 30 -13 69 -33 85 -45 17 -11 32 -21 35 -21 11 -1 80 -41 155 -90 44 -29 90 -57 102 -64 12 -6 27 -17 35 -24 7 -7 26 -22 43 -33 32 -21 262 -203 310 -246 17 -15 41 -36 55 -48 14 -12 48 -44 77 -71 73 -69 93 -67 48 6 -13 22 -30 51 -37 65 -14 26 -17 31 -106 170 -31 47 -65 100 -76 117 -12 18 -24 33 -28 33 -5 0 -8 7 -8 15 0 8 -5 15 -10 15 -6 0 -13 8 -17 18 -3 9 -20 33 -37 53 -17 19 -51 60 -76 89 -47 57 -154 171 -191 205 -153 139 -315 254 -477 335 l-52 27 62 20 c35 11 95 30 133 42 39 12 81 28 95 35 32 18 42 12 124 -76z m-3644 -983 c0 -2 -24 -16 -52 -30 -45 -22 -49 -23 -29 -5 13 11 29 20 37 20 8 0 14 5 14 10 0 6 7 10 15 10 8 0 15 -2 15 -5z m6554 -3865 c428 -54 868 -119 1293 -190 454 -77 1001 -185 1018 -201 7 -8 -343 -83 -530 -114 -332 -54 -513 -66 -730 -48 -206 17 -579 16 -747 -2 -464 -49 -865 -207 -1240 -490 -547 -412 -975 -1023 -1277 -1822 -67 -179 -146 -433 -181 -586 -12 -54 -24 -96 -26 -94 -6 6 33 189 77 356 106 411 279 847 466 1181 112 200 159 267 262 374 171 177 313 340 444 508 157 201 514 427 862 545 131 44 262 77 410 103 234 41 289 45 697 45 136 0 244 3 240 7 -23 22 -398 139 -552 172 -258 55 -477 73 -687 57 -135 -11 -301 -38 -346 -56 -12 -5 0 22 37 84 31 51 68 115 82 144 36 72 41 76 77 71 18 -2 175 -22 351 -44z"/> <path style="fill:#42977d;fill-opacity:0.81993568" id="path8" d="M17625 11959 c-192 -19 -453 -78 -647 -145 -543 -189 -1031 -517 -1573 -1059 -283 -282 -446 -479 -759 -915 -289 -403 -665 -1044 -864 -1473 -32 -68 -12 -50 38 35 120 202 352 532 541 768 638 799 1338 1391 2086 1764 176 88 178 89 408 176 370 140 601 200 950 246 166 22 652 26 795 6 398 -55 580 -100 1035 -253 227 -77 337 -119 513 -198 62 -27 112 -46 110 -42 -4 11 -150 137 -273 237 -621 502 -1264 792 -1894 854 -117 11 -347 11 -466 -1z"/> </g> </svg>